<svg xmlns="http://www.w3.org/2000/svg" width="568.507" height="201.252" viewBox="0 0 568.507 201.252">
  <g id="Group_151" data-name="Group 151" transform="translate(96.824 -24.748)">
    <g id="Web">
      <path id="Path_676" data-name="Path 676" d="M71.953,198.359v.147l.076-.365,21.23-77.709h14.156l21.453,77.927.073.509.073-.727L145.8,120.432h17.436L137.991,226.671H121.862l-21.23-76.253h-.441L78.885,226.671h-16.2L37.514,120.432H54.95Z" transform="translate(140.56 -88.093)" fill="#242e6c"/>
      <path id="Path_677" data-name="Path 677" d="M128.646,212.572q-16.781,0-26.741-10.982t-9.959-28.2v-2.92q0-17.218,9.888-28.565A31.271,31.271,0,0,1,126.6,130.63q15.979,0,24.48,9.668t8.5,25.941v10.435h-49.25l-.147.362q.437,9.38,5.509,15.344t14.044,5.962A37.954,37.954,0,0,0,142,196.592a40.205,40.205,0,0,0,9.853-5.035l5.691,11.626a36.681,36.681,0,0,1-11.821,6.674A49.275,49.275,0,0,1,128.646,212.572ZM126.6,144.86a13.3,13.3,0,0,0-10.8,5.218,25.664,25.664,0,0,0-5.253,13.242l.147.365H142V161.86q0-7.515-3.83-12.259T126.6,144.86Z" transform="translate(223.994 -72.462)" fill="#242e6c"/>
      <path id="Path_678" data-name="Path 678" d="M195.386,194.415q0,17.3-8.062,27.838T164.595,232.8a26.15,26.15,0,0,1-12.8-2.991,24.949,24.949,0,0,1-9.085-8.756l-1.753,10.215H126.068V117.435H143.8v43.856a25.5,25.5,0,0,1,8.756-7.738,25.116,25.116,0,0,1,11.9-2.7q14.809,0,22.874,11.529t8.062,30.5Zm-17.732-1.53q0-12.328-4.227-19.921T160,165.376A17.577,17.577,0,0,0,150.109,168a18.42,18.42,0,0,0-6.312,7.3v33.124a17.4,17.4,0,0,0,6.279,7.335,18.177,18.177,0,0,0,10.065,2.589q9.194,0,13.356-6.454t4.156-17.479Z" transform="translate(276.297 -92.687)" fill="#242e6c"/>
    </g>
    <g id="DEVELOPMENT" transform="translate(-102.222)">
      <path id="Path_683" data-name="Path 683" d="M39.645,250.922V177.1h18.1a23.11,23.11,0,0,1,18.814,9.024q7.3,9.027,7.3,23.175v9.531q0,14.2-7.3,23.147a23.184,23.184,0,0,1-18.814,8.948Zm6.084-68.452v63.28H57.744q8.928,0,14.478-7.565t5.552-19.3v-9.7q0-11.629-5.552-19.173t-14.478-7.54Z" transform="translate(-34.248 -25.986)" fill="#242e6c"/>
      <path id="Path_684" data-name="Path 684" d="M96.411,215.225h-29V245.75h33.311v5.172h-39.4V177.1h39.1v5.375H67.407v27.582h29Z" transform="translate(-1.022 -25.986)" fill="#242e6c"/>
      <path id="Path_685" data-name="Path 685" d="M101.94,238.144l1.216,4.564h.3l1.269-4.564L122.22,177.1h6.593l-22.767,73.826h-5.527L77.754,177.1h6.588Z" transform="translate(24.166 -25.986)" fill="#242e6c"/>
      <path id="Path_686" data-name="Path 686" d="M135.961,215.225H106.955V245.75h33.314v5.172h-39.4V177.1h39.1v5.375H106.955v27.582h29.006Z" transform="translate(59.6 -25.986)" fill="#242e6c"/>
      <path id="Path_687" data-name="Path 687" d="M126.02,245.75h29.814v5.172H119.886V177.1h6.134Z" transform="translate(88.747 -25.986)" fill="#242e6c"/>
      <path id="Path_688" data-name="Path 688" d="M181.144,225.045q0,13.438-6.264,20.513t-17.165,7.072q-10.7,0-16.808-7.072T134.8,225.045V204.357q0-13.434,6.084-20.559t16.785-7.122q10.9,0,17.19,7.148t6.289,20.533Zm-6.036-20.837q0-10.953-4.511-16.481T157.665,182.2q-8.165,0-12.525,5.527t-4.359,16.481v20.837q0,11.109,4.359,16.633t12.575,5.527q8.415,0,12.9-5.527t4.488-16.633Z" transform="translate(111.601 -26.63)" fill="#242e6c"/>
      <path id="Path_689" data-name="Path 689" d="M163.538,220.346v30.576h-6.084V177.1H179.31q9.684,0,15.009,5.932T199.64,198.7q0,9.84-5.321,15.744t-15.009,5.907Zm0-5.324H179.31q7.1,0,10.645-4.64a20.839,20.839,0,0,0,0-23.271q-3.548-4.643-10.645-4.64H163.538Z" transform="translate(146.331 -25.986)" fill="#242e6c"/>
      <path id="Path_690" data-name="Path 690" d="M185.74,177.1l20.533,64.65h.306l20.584-64.65h7.862v73.826H228.99v-32.4l.608-30.168-.3-.051-20.842,62.621H204.4L183.61,188.4l-.3.051.608,30.067v32.4h-5.983V177.1Z" transform="translate(177.719 -25.986)" fill="#242e6c"/>
      <path id="Path_691" data-name="Path 691" d="M241,215.225H212V245.75h33.314v5.172h-39.4V177.1h39.1v5.375H212v27.582H241Z" transform="translate(220.611 -25.986)" fill="#242e6c"/>
      <path id="Path_692" data-name="Path 692" d="M270.411,250.922h-6.086L231.37,189.112l-.306.051v61.76h-6.134V177.1h6.134l32.959,61.811.3-.053V177.1h6.086Z" transform="translate(249.757 -25.986)" fill="#242e6c"/>
      <path id="Path_693" data-name="Path 693" d="M292.732,182.471h-20.64v68.452h-6.084V182.471H245.424V177.1h47.308Z" transform="translate(281.172 -25.986)" fill="#242e6c"/>
    </g>
  </g>
</svg>
