<svg xmlns="http://www.w3.org/2000/svg" width="91.243" height="92.597" viewBox="0 0 91.243 92.597">
  <g id="KenlaSystems_Logo_Square" transform="translate(-59 -39.2)">
    <g id="FONT" transform="translate(59 39.2)">
      <g id="Group_444" data-name="Group 444" transform="translate(0.274 0)">
        <path id="Path_1378" data-name="Path 1378" d="M131.506,358.489l1.064.827,1.031.822.988.822.967.8.919.779.87.774.827.752.8.752.725.709.709.7.634.709.612.655.564.661.494.612.473.612.4.586.376.564.306.543.258.516.21.494.167.473.1.424.07.424v.376l-.048.376-.1.328-.161.306-.188.258-.263.263-.306.209-.349.188-.4.167-.446.14-.494.091-.543.075-.612.043-.634.027-.682-.027-.757-.043-.774-.075-.827-.113-.843-.118-.919-.167-.945-.188-.988-.236-1.031-.258-1.064-.285-1.107-.306-1.128-.328-1.176-.355-1.2-.4-1.225-.424-1.268-.424-1.295-.467-1.321-.494-1.338-.521-1.37-.537-1.386-.564-1.413-.591-1.44-.612-1.434-.634-1.461-.661-1.483-.655-1.483-.709-1.5-.7-1.509-.731-1.5-.731-1.531-.752-1.531-.779-1.531-.8-1.531-.8-1.531-.8-1.5-.827-1.531-.843-1.5-.849-1.509-.849-1.5-.87-1.483-.843-1.461-.9-1.461-.87-1.434-.87-1.44-.892-1.386-.9-1.391-.87L78.02,348.8l-1.316-.9-1.321-.87-1.268-.87-1.273-.892-1.2-.87-1.2-.849-1.155-.87-1.128-.849-1.085-.822-1.058-.849-1.01-.8-.967-.822-.94-.779-.9-.773-.849-.779-.8-.752-.752-.731-.731-.7-.661-.709-.634-.682-.591-.655-.516-.634-.494-.612-.424-.591-.376-.586-.328-.542-.285-.516-.236-.521-.188-.467-.118-.451-.091-.419-.027-.4.027-.376.07-.355.14-.306.167-.279.236-.258.279-.236.333-.215.376-.161.424-.167.467-.118.543-.07.564-.07.639-.021h.655l.709.043.774.048.8.1.849.14.9.14.919.188.962.215,1.015.231,1.058.263,1.085.3,1.107.306,1.176.355,1.176.376,1.225.424,1.246.424,1.273.446-1.085-.328-1.058-.306-1.037-.285-.988-.258-.94-.236L69.264,326l-.87-.161-.827-.145-.774-.091-.731-.1-.709-.043H64.107l-.564.043-.494.07-.473.118-.4.118-.381.167-.306.188-.258.236-.209.236-.14.279-.118.306-.048.328v.376l.048.381.118.419.14.424.209.473.258.494.306.516.355.543.424.564.446.564.521.612.543.634.612.639.634.655.7.682.731.682.8.731.827.731.87.731.892.752.945.774.988.779,1.031.773,1.064.8,1.08.8,1.133.827,1.15.822,1.2.822,1.225.822,1.225.827,1.268.843,1.295.827,1.321.822,1.316.822,1.364.849,1.37.822,1.386.8,1.391.827,1.413.8,1.413.8,1.413.8,1.434.779,1.434.752,1.44.752,1.434.752,1.434.731,1.413.709,1.44.7,1.413.682,1.413.661,1.386.634,1.391.634,1.364.591,1.343.586,1.338.564,1.3.543,1.295.516,1.268.494,1.252.473,1.2.424,1.2.424,1.15.4,1.107.355,1.107.328,1.058.306,1.015.285.988.258.94.21.919.215.849.161.822.118.8.118.731.07.682.048h1.252l.564-.048.494-.07.446-.118.424-.14.355-.167.306-.188.258-.21.188-.258.167-.285.091-.306.048-.328v-.376l-.07-.4-.1-.4-.161-.446-.215-.473-.258-.494-.306-.516-.376-.543-.4-.564-.467-.564-.494-.612-.569-.634-.607-.639-.661-.655-.682-.682-.757-.709-.774-.7-.849-.731-.87-.752" transform="translate(-54.1 -308.323)" fill="#f6c413"/>
        <path id="Path_1379" data-name="Path 1379" d="M696.854,172.259l.8.607.752.612.709.591.682.585.612.564.591.543.537.543.494.516.451.494.4.473.355.467.306.424.236.4.21.4.14.355.1.328.048.306v.285l-.07.258-.118.236-.167.188-.209.161-.263.145-.328.118-.354.07-.424.048-.467.021h-.494l-.564-.048-.591-.07-.661-.118-.682-.118-.73-.161-.752-.188-.8-.215-.849-.258-.87-.258-.919-.306-.919-.333-.962-.349-1.015-.376-1.01-.4-1.037-.424-1.058-.446-1.064-.467-1.107-.494-1.107-.521-1.107-.516-1.128-.564-1.128-.543-1.133-.591-1.128-.586-1.155-.612-1.128-.612-1.128-.634-1.107-.612-1.107-.661-1.107-.634-1.085-.655-1.058-.661-1.037-.661-1.037-.655-.988-.661-.988-.661-.94-.655-.918-.639L663.4,164l-.849-.634-.827-.634-.773-.612-.73-.612-.709-.591-.655-.564-.612-.564-.564-.543-.543-.537-.473-.494-.424-.494-.4-.473-.333-.446-.279-.424-.215-.4-.188-.376-.14-.349-.07-.333-.021-.306.021-.258.07-.236.14-.231.188-.188.236-.145.285-.14.328-.091.376-.075.424-.043h.494l.521.021.564.048.634.091.661.1.682.14.752.188.779.188.822.236.849.258.87.285.919.306.94.328-.8-.236-.773-.21-.731-.188-.682-.167-.661-.14-.612-.1-.564-.07-.543-.048h-.919l-.376.048-.328.1-.285.091-.258.14-.166.167-.14.188-.1.236-.022.258.022.258.075.306.113.333.193.376.209.376.285.4.328.424.376.446.424.473.473.467.516.521.564.516.591.543.655.543.688.564.725.586.757.564.8.612.843.591.849.612.9.612.919.607.94.612.967.612.988.612,1.01.612,1.015.612,1.031.612,1.064.586,1.037.591,1.058.564,1.058.564,1.058.543,1.058.543,1.064.516,1.058.516,1.037.473,1.01.467,1.015.451.988.424.988.4.94.4.94.355.9.328.87.306.849.263.822.258.779.236.731.188.7.161.661.145.612.091.586.1.543.043h.919l.4-.043.349-.075.285-.091.258-.14.188-.167.14-.188.1-.21.048-.263v-.258l-.07-.306-.118-.328-.167-.354-.209-.376-.285-.4-.306-.424-.376-.424-.4-.473-.467-.494-.521-.494-.537-.516-.612-.543Z" transform="translate(-622.343 -147.076)" fill="#e57525"/>
        <path id="Path_1380" data-name="Path 1380" d="M434.131,234.369l.94.731.9.725.87.709.827.682.773.7.752.661.682.661.661.634.591.612.564.585.516.591.473.564.4.516.376.521.306.494.258.467.236.446.161.424.1.4.07.376.021.328-.043.328-.1.285-.14.258-.188.236-.258.209-.285.167-.355.14-.4.118-.451.1-.494.043-.537.027h-.569l-.634-.027-.682-.07-.731-.091-.752-.118-.8-.14-.849-.188-.892-.215-.919-.236-.967-.258-.988-.306-1.037-.306-1.058-.349-1.085-.376-1.128-.4-1.155-.424-1.176-.446-1.176-.473-1.225-.494-1.246-.516-1.273-.543-1.273-.564-1.295-.585-1.295-.612-1.316-.612-1.321-.634-1.338-.661-1.343-.682L410.5,237.1l-1.343-.682-1.343-.731-1.338-.7-1.321-.731-1.343-.752-1.316-.752-1.295-.757-1.321-.774-1.268-.752-1.273-.779-1.246-.774-1.225-.779-1.2-.774-1.2-.779-1.155-.774-1.128-.779-1.107-.779-1.085-.752-1.037-.774-1.01-.731-.967-.752-.94-.731-.9-.731-.87-.7-.822-.682-.779-.682-.731-.682-.7-.661-.661-.612-.586-.634-.569-.591-.516-.586-.473-.564-.4-.521-.376-.516-.306-.494-.258-.473-.236-.446-.167-.424-.091-.4-.075-.376-.021-.328.048-.333.091-.279.145-.263.188-.231.258-.215.279-.161.355-.145.4-.118.446-.091.494-.048.516-.021h.591l.634.021.682.07.731.1.757.118.8.14.843.188.9.21.919.236.962.258.994.306,1.031.306,1.064.355,1.08.376,1.133.4-.967-.306-.919-.263-.9-.231-.843-.215-.8-.188-.779-.14-.731-.14-.682-.1-.661-.048-.586-.043h-.564l-.494.021-.451.07-.424.1-.349.118-.306.14-.263.161-.21.215-.14.236-.118.258-.048.306v.306l.048.349.118.381.14.376.21.419.263.451.306.467.349.494.424.521.451.537.516.543.543.591.612.586.634.612.682.612.731.661.779.655.822.661.849.682.892.682.919.7.967.709.988.7,1.01.731,1.064.731,1.08.725,1.107.731,1.133.731,1.15.731,1.176.731,1.182.725,1.225.709,1.219.731,1.225.7,1.252.7,1.246.682,1.246.682,1.273.682,1.246.661,1.273.634,1.246.639,1.246.607,1.252.612,1.246.591,1.225.543,1.2.537,1.2.543,1.176.494,1.155.473,1.128.467,1.107.424,1.085.4,1.058.376,1.037.349,1.01.333.967.306.919.279.892.236.87.209.827.188.773.167.731.14.709.1.655.07.612.022.569.027.494-.027.467-.043.424-.1.376-.091.306-.145.285-.188.209-.188.167-.236.118-.258.07-.279v-.306l-.048-.333-.091-.376-.145-.4-.188-.4-.258-.446-.279-.467-.355-.494-.4-.494-.446-.543-.494-.543-.543-.564-.586-.586-.639-.612-.682-.639-.7-.634Z" transform="translate(-357.289 -198.459)" fill="#231f20" stroke="#212830" stroke-linecap="square" stroke-miterlimit="10" stroke-width="1"/>
        <path id="Path_1381" data-name="Path 1381" d="M1027.068,50.473l-.027-.8-.091-.8-.145-.8-.209-.779-.258-.779-.306-.725-.354-.731-.424-.682-.467-.661-.521-.634-.542-.591-.586-.537-.639-.494-.682-.473-.7-.4-.709-.355-.752-.285-.773-.258-.779-.188-.8-.118-.8-.07-.827-.021-.8.048-.8.091-.773.167-.8.209-.752.285-.731.328-.709.376-.7.424-.639.473-.612.516-.586.564-.542.612-.473.634-.446.682-.4.709-.333.725-.279.757-.236.774-.167.8-.118.8-.07.8v.8l.07.8.118.8.167.8.236.774.279.752.333.731.4.7.446.688.473.634.542.612.586.564.612.516.639.473.7.424.709.376.731.328.752.285.8.21.773.167.8.091.8.048.827-.021.8-.075.8-.113.779-.193.773-.258.752-.279.709-.355.7-.4.682-.473.639-.494.586-.543.542-.586.521-.639.467-.655.424-.682.354-.731.306-.731.258-.774.209-.779.145-.8.091-.8Z" transform="translate(-953.637 -39.295)" fill="#f5c417"/>
        <path id="Path_1382" data-name="Path 1382" d="M1111.355,49.578l-.091-.8-.145-.8-.209-.779-.258-.774-.306-.731-.355-.731-.424-.682-.467-.655-.521-.639-.542-.586-.586-.543-.639-.494-.682-.473-.7-.4-.709-.355-.752-.279-.773-.258-.779-.188-.8-.118-.8-.075-.827-.021-.8.048-.8.091-.774.167-.8.209-.752.285-.73.328-.709.376-.7.424-.113.081.36-.091.773-.167.8-.091.8-.048.827.021.8.07.8.118.773.188.779.258.752.285.709.355.7.4.682.473.639.494.586.543.543.586.516.634.473.661.424.682.355.731.306.731.258.774.209.779.145.8.091.8.027.8-.027.8-.091.8-.145.8-.209.779-.258.774-.306.731-.355.731-.424.682-.473.655-.516.639-.543.586L1104,60.5l-.639.494-.247.172.075-.016.773-.258.752-.285.709-.355.7-.4.682-.473.639-.494.586-.537.542-.591.521-.634.467-.661.424-.682.355-.731.306-.725.258-.779.209-.779.145-.8.091-.8.027-.8Z" transform="translate(-1037.951 -39.2)" fill="#fff" opacity="0.15"/>
        <path id="Path_1383" data-name="Path 1383" d="M1355.159,197.58V197.5l-.011-.075-.011-.081-.021-.075-.027-.075-.027-.07-.037-.07-.038-.064-.049-.064-.048-.064-.054-.054-.054-.054-.064-.048-.064-.043-.07-.043-.07-.032-.07-.027-.075-.027-.075-.016-.081-.011-.075-.011h-.081l-.075.005-.081.011-.075.016-.075.016-.075.027-.07.032-.07.038-.064.043-.064.043-.059.054-.053.054-.054.059-.048.059-.043.064-.038.07-.032.07-.027.075-.022.075-.016.075-.011.081-.005.075v.081l.005.075.011.075.016.081.022.075.027.07.032.07.038.07.043.064.048.064.054.059.053.054.059.048.064.048.064.043.07.032.07.032.075.027.075.021.075.016.081.011.075.005.081-.005.075-.005.081-.011.075-.021.075-.021.07-.027.07-.038.07-.038.064-.043.064-.048.054-.054.054-.059.048-.059.049-.064.038-.064.037-.07.027-.07.027-.075.021-.075.011-.081.011-.075Z" transform="translate(-1283.227 -188.05)" fill="#fff" opacity="0.2"/>
      </g>
      <g id="Group_445" data-name="Group 445" transform="translate(0 56.612)">
        <path id="Path_1384" data-name="Path 1384" d="M726.665,1093.1a.631.631,0,0,1,.21.542q-.008,10.668-.005,21.342c0,.425-.091.51-.521.51-.822,0-1.649-.005-2.471,0a.335.335,0,0,1-.328-.167c-2.809-4.528-5.7-9-8.46-13.563-.747-1.23-1.434-2.492-2.084-3.776a1.189,1.189,0,0,0-.086-.151c0,.639-.021,1.311.005,1.988.059,1.8.091,3.594.091,5.393v9.8c0,.381-.091.478-.467.478H710.4c-.392,0-.494-.1-.494-.484v-10.523q0-5.422-.005-10.845a.631.631,0,0,1,.209-.542h3.277c-.022.1.059.161.1.236q2.86,4.5,5.726,9.014a80.66,80.66,0,0,1,4.663,7.988c.016.032.027.091.091.075,0-.08.005-.161,0-.242-.113-1.563-.183-3.127-.193-4.69-.021-3.921-.016-7.837-.027-11.759a.854.854,0,0,1,.167-.612C724.839,1093.1,725.752,1093.1,726.665,1093.1Z" transform="translate(-674.398 -1093.1)" fill="#e77826"/>
        <path id="Path_1385" data-name="Path 1385" d="M64.154,1093.1c.188.274.064.467-.129.693q-3.7,4.311-7.386,8.627a.323.323,0,0,0-.032.473q4.093,6.011,8.17,12.033c.086.124.172.226.081.408s-.226.167-.376.167c-.983,0-1.971-.005-2.954.005a.41.41,0,0,1-.387-.21q-3.4-5.084-6.817-10.158l-.193-.279c-.607.7-1.2,1.381-1.789,2.063a.419.419,0,0,0-.059.306v7.816c0,.365-.1.462-.457.462-.752,0-1.5-.011-2.256.005a.645.645,0,0,1-.564-.22q0-10.975-.005-21.943c0-.21.054-.247.252-.242.956.011,1.912.005,2.868.005a.854.854,0,0,1,.167.612q-.008,4.641-.005,9.288v.328a1.145,1.145,0,0,0,.107-.118c1.107-1.574,2.358-3.035,3.572-4.528,1.509-1.864,3.024-3.717,4.534-5.581C61.715,1093.1,62.934,1093.1,64.154,1093.1Z" transform="translate(-49 -1093.1)" fill="#e77826"/>
        <path id="Path_1386" data-name="Path 1386" d="M1410.108,1093.1c.424,1.252.843,2.5,1.268,3.755q3.094,9.049,6.183,18.1c.124.37.005.537-.381.537-.886,0-1.773-.005-2.659.005a.3.3,0,0,1-.354-.253c-.72-2.143-1.45-4.281-2.17-6.419a.313.313,0,0,0-.355-.258q-3.481.016-6.956,0c-.209,0-.285.07-.349.263-.7,2.138-1.413,4.276-2.106,6.414a.3.3,0,0,1-.354.253c-.86-.011-1.719-.005-2.579-.005-.371,0-.489-.172-.371-.526l7.349-21.61c.027-.086.054-.172.075-.258Zm-1.961,3.561c-.8,3.148-1.993,6.167-2.976,9.25a.271.271,0,0,0,.075.016q2.86,0,5.721.005c.215,0,.177-.092.129-.226-.349-1.015-.693-2.025-1.037-3.04C1409.388,1100.679,1408.657,1098.713,1408.147,1096.661Z" transform="translate(-1326.369 -1093.1)" fill="#e77826"/>
        <path id="Path_1387" data-name="Path 1387" d="M407.14,1093.1a.742.742,0,0,1,.172.586c-.011.591-.005,1.182-.005,1.773,0,.344-.1.446-.441.446-2.756,0-5.511.005-8.272-.005-.253,0-.328.048-.328.317q.016,2.941,0,5.882c0,.236.048.312.3.312,2.589-.011,5.173-.005,7.762-.005.392,0,.489.1.489.489v1.88c0,.306-.113.419-.419.419-2.616,0-5.227.005-7.843-.005-.236,0-.29.059-.29.3q.016,3.448,0,6.9c0,.253.048.328.317.328,2.911-.011,5.818-.006,8.729-.006.4,0,.483.081.483.484v1.88c0,.328-.107.435-.424.435h-11.92c-.322,0-.446-.124-.446-.451q0-10.741-.005-21.476a.649.649,0,0,1,.215-.462Q401.185,1093.095,407.14,1093.1Z" transform="translate(-376.414 -1093.1)" fill="#e77826"/>
        <path id="Path_1388" data-name="Path 1388" d="M1129.21,1093.1a.854.854,0,0,1,.167.612q-.008,9.331-.011,18.661c0,.263.064.322.322.322,2.863-.011,5.732-.005,8.595-.005.4,0,.489.086.489.483v1.88c0,.317-.118.44-.43.44h-11.818c-.29,0-.419-.134-.419-.424v-5.237q0-8.1-.005-16.19a.63.63,0,0,1,.21-.542Z" transform="translate(-1068.241 -1093.1)" fill="#e77826"/>
        <path id="Path_1389" data-name="Path 1389" d="M1116.314,1762.311c.011.005.016.011.016.022H1113a.29.29,0,0,0,.043-.032C1114.133,1762.306,1115.224,1762.306,1116.314,1762.311Z" transform="translate(-1055.845 -1726.353)" fill="#e77826"/>
        <path id="Path_1390" data-name="Path 1390" d="M84.1,1762.238a.073.073,0,0,1,.038-.032c.94,0,1.88-.005,2.82-.005.016.011.027.027.043.038Z" transform="translate(-82.215 -1726.258)" fill="#e77826"/>
        <path id="Path_1391" data-name="Path 1391" d="M611.858,1762.2c.016.01.027.027.043.038H609a.071.071,0,0,1,.038-.032C609.978,1762.2,610.918,1762.2,611.858,1762.2Z" transform="translate(-578.919 -1726.258)" fill="#e77826"/>
        <path id="Path_1392" data-name="Path 1392" d="M1662.758,1762.2c.016.01.027.027.043.038h-2.9a.071.071,0,0,1,.038-.032C1660.878,1762.2,1661.818,1762.2,1662.758,1762.2Z" transform="translate(-1573.368 -1726.258)" fill="#e77826"/>
        <path id="Path_1393" data-name="Path 1393" d="M365.063,1762.522c-.005-.011,0-.022.011-.022h.881a.038.038,0,0,1,.021.027C365.67,1762.522,365.364,1762.522,365.063,1762.522Z" transform="translate(-348.083 -1726.542)" fill="#e77826"/>
        <path id="Path_1394" data-name="Path 1394" d="M884,1762.427a.066.066,0,0,1,.027-.027h.876l.016.011-.005.016Z" transform="translate(-839.146 -1726.447)" fill="#e77826"/>
        <path id="Path_1395" data-name="Path 1395" d="M1364.781,1762.306a.075.075,0,0,1,.032.027h-.913a.3.3,0,0,0,.043-.032C1364.228,1762.3,1364.507,1762.306,1364.781,1762.306Z" transform="translate(-1293.268 -1726.353)" fill="#e77826"/>
        <path id="Path_1396" data-name="Path 1396" d="M1440.963,1762.522c-.005-.011,0-.022.011-.022h.827a.025.025,0,0,1,.016.027C1441.532,1762.522,1441.248,1762.522,1440.963,1762.522Z" transform="translate(-1366.189 -1726.542)" fill="#e77826"/>
        <path id="Path_1397" data-name="Path 1397" d="M1367.933,1583.368h-.827c-.129-.075-.1-.2-.1-.312v-5.366a.536.536,0,0,0-.048-.327c-.177.666-.344,1.3-.516,1.934-.258.967-.51,1.928-.768,2.9-.027.1-.027.226-.2.226s-.193-.107-.225-.231c-.43-1.617-.859-3.234-1.327-4.851v5.715c0,.113.043.237-.086.317-.279,0-.559,0-.838-.005-.108-.059-.091-.161-.091-.258q0-4.819-.005-9.632c0-.2.07-.263.263-.269.715-.011.715-.016.892.677.462,1.842.924,3.685,1.423,5.538.1-.4.21-.806.312-1.2q.6-2.385,1.187-4.781a.256.256,0,0,1,.3-.236c.736.011.736,0,.736.731v9.121C1368.019,1583.159,1368.062,1583.288,1367.933,1583.368Z" transform="translate(-1292.321 -1547.41)" fill="#050505"/>
        <path id="Path_1398" data-name="Path 1398" d="M75.946,1583.447c-.94,0-1.88.005-2.82.005a.736.736,0,0,1-.645-.741c-.016-.811-.005-1.628-.011-2.444,0-.15.07-.2.215-.2.843-.054.843-.059.843.779,0,.473.005.951-.005,1.424,0,.15.016.225.2.22q.806-.016,1.612,0c.145,0,.177-.043.177-.183-.005-.628-.005-1.252,0-1.88a.473.473,0,0,0-.124-.312c-.822-1-1.633-2.014-2.471-3a1.764,1.764,0,0,1-.451-1.273c.021-.537.005-1.074.005-1.611.005-.629.3-.924.919-.924h2.283a.8.8,0,0,1,.908.908c0,.671-.005,1.343.005,2.014,0,.193-.059.285-.263.274a4.94,4.94,0,0,0-.564,0c-.188.011-.252-.07-.247-.252.005-.58-.005-1.166.005-1.746.005-.161-.032-.215-.2-.21-.526.011-1.058.011-1.585,0-.15,0-.2.038-.2.193.011.526.011,1.058,0,1.585a.528.528,0,0,0,.156.354c.838,1.021,1.676,2.047,2.525,3.067a1.506,1.506,0,0,1,.371,1.031c-.011.7,0,1.4-.005,2.1A.775.775,0,0,1,75.946,1583.447Z" transform="translate(-71.203 -1547.505)" fill="#050505"/>
        <path id="Path_1399" data-name="Path 1399" d="M600.846,1583.447c-.94,0-1.88.005-2.82.005a.736.736,0,0,1-.645-.741c-.016-.811-.005-1.628-.011-2.444,0-.15.07-.2.215-.2.843-.054.843-.059.843.779,0,.473.005.951-.005,1.424,0,.15.016.225.2.22q.806-.016,1.611,0c.145,0,.177-.043.177-.183-.005-.628-.005-1.252,0-1.88a.473.473,0,0,0-.124-.312c-.822-1-1.633-2.014-2.471-3a1.764,1.764,0,0,1-.451-1.273c.022-.537.005-1.074.005-1.611.005-.629.3-.924.919-.924h2.283a.8.8,0,0,1,.908.908c0,.671-.005,1.343.005,2.014,0,.193-.059.285-.263.274a4.938,4.938,0,0,0-.564,0c-.188.011-.253-.07-.247-.252.005-.58-.005-1.166.005-1.746.005-.161-.032-.215-.2-.21-.526.011-1.058.011-1.585,0-.15,0-.2.038-.2.193.011.526.011,1.058,0,1.585a.528.528,0,0,0,.156.354c.838,1.021,1.676,2.047,2.525,3.067a1.506,1.506,0,0,1,.371,1.031c-.011.7,0,1.4-.005,2.1A.77.77,0,0,1,600.846,1583.447Z" transform="translate(-567.907 -1547.505)" fill="#050505"/>
        <path id="Path_1400" data-name="Path 1400" d="M1651.746,1583.447c-.94,0-1.88.005-2.82.005a.736.736,0,0,1-.645-.741c-.016-.811-.005-1.628-.01-2.444,0-.15.07-.2.215-.2.843-.054.843-.059.843.779,0,.473.006.951-.005,1.424,0,.15.016.225.2.22q.806-.016,1.612,0c.145,0,.177-.043.177-.183-.005-.628-.005-1.252,0-1.88a.473.473,0,0,0-.124-.312c-.822-1-1.633-2.014-2.471-3a1.764,1.764,0,0,1-.451-1.273c.021-.537.005-1.074.005-1.611.005-.629.3-.924.919-.924h2.283a.8.8,0,0,1,.908.908c0,.671-.006,1.343.005,2.014,0,.193-.059.285-.263.274a4.943,4.943,0,0,0-.564,0c-.188.011-.252-.07-.247-.252.005-.58-.005-1.166.005-1.746.005-.161-.032-.215-.2-.21-.527.011-1.058.011-1.585,0-.15,0-.2.038-.2.193.011.526.011,1.058,0,1.585a.528.528,0,0,0,.156.354c.838,1.021,1.676,2.047,2.525,3.067a1.506,1.506,0,0,1,.371,1.031c-.011.7,0,1.4-.006,2.1A.77.77,0,0,1,1651.746,1583.447Z" transform="translate(-1562.356 -1547.505)" fill="#050505"/>
        <path id="Path_1401" data-name="Path 1401" d="M1115.368,1583.463c-1.09,0-2.181-.005-3.271-.005-.107-.059-.091-.161-.091-.258q0-4.818-.005-9.631c0-.2.064-.269.263-.269q1.45.008,2.9,0c.193,0,.279.064.268.269a3.313,3.313,0,0,0,0,.457c.016.22-.086.279-.285.274-.629-.011-1.252,0-1.88-.005-.145,0-.2.027-.2.188.005,1.047.011,2.095,0,3.137,0,.172.054.2.215.2.548-.011,1.09.005,1.638-.005.21-.005.312.049.3.285-.021.833.124.7-.709.709-.419.005-.843.005-1.262,0-.134,0-.183.032-.183.177.005,1.107.005,2.219,0,3.325,0,.161.054.188.2.188.634-.005,1.268.005,1.907-.005.231-.005.317.075.285.3S1115.551,1583.248,1115.368,1583.463Z" transform="translate(-1054.899 -1547.505)" fill="#050505"/>
        <path id="Path_1402" data-name="Path 1402" d="M332.589,1583.126h-.881c-.129-.075-.1-.2-.1-.311,0-.951-.022-1.9.005-2.847a5.4,5.4,0,0,0-.312-1.918c-.542-1.579-.978-3.191-1.466-4.786-.081-.258-.043-.3.226-.306.784-.016.784-.016.988.736.36,1.316.72,2.632,1.1,4.012.2-.72.376-1.38.559-2.041.226-.833.462-1.671.677-2.509.043-.166.107-.22.274-.2s.36,0,.537.005c.312,0,.333.032.247.322-.457,1.509-.908,3.024-1.381,4.528a7.082,7.082,0,0,0-.4,2.546c.043.822.011,1.644.011,2.471C332.669,1582.938,332.7,1583.056,332.589,1583.126Z" transform="translate(-314.717 -1547.173)" fill="#050505"/>
        <path id="Path_1403" data-name="Path 1403" d="M856.4,1583.463h-.876c-.124-.081-.081-.21-.081-.317,0-2.852-.005-5.7.005-8.562,0-.252-.075-.312-.312-.3-.338.021-.682,0-1.021.005-.172.005-.247-.065-.236-.236a4.047,4.047,0,0,0,0-.51c-.011-.193.075-.247.258-.247,1.219.005,2.433.005,3.653,0,.177,0,.269.048.258.242a4.092,4.092,0,0,0,0,.51c.011.193-.08.247-.258.242-.333-.011-.661.01-.994-.005-.226-.016-.3.043-.3.285.011,2.014.005,4.023.005,6.038v2.552C856.509,1583.265,856.541,1583.393,856.4,1583.463Z" transform="translate(-810.646 -1547.505)" fill="#050505"/>
      </g>
    </g>
  </g>
</svg>
