<svg xmlns="http://www.w3.org/2000/svg" xmlns:xlink="http://www.w3.org/1999/xlink" width="690.576" height="704.402" viewBox="0 0 690.576 704.402">
  <defs>
    <filter id="Rectangle_B" x="81.068" y="0" width="548.5" height="681.5" filterUnits="userSpaceOnUse">
      <feOffset dx="10" dy="10" input="SourceAlpha"/>
      <feGaussianBlur stdDeviation="2.5" result="blur"/>
      <feFlood flood-opacity="0.161"/>
      <feComposite operator="in" in2="blur"/>
      <feComposite in="SourceGraphic"/>
    </filter>
  </defs>
  <g id="WWW_ELEMENT" data-name="WWW ELEMENT" transform="translate(-1015.932 -318)">
    <g id="Element_WWW">
      <path id="Rectangle_B-2" data-name="Rectangle_B" d="M50,0H481a50,50,0,0,1,50,50V614a50,50,0,0,1-50,50H50A50,50,0,0,1,0,614V50A50,50,0,0,1,50,0Z" transform="translate(1097 318)" fill="#fbd7d9" opacity="0.25"/>
      <g transform="matrix(1, 0, 0, 1, 1015.93, 318)" filter="url(#Rectangle_B)">
        <g id="Rectangle_B-3" data-name="Rectangle_B" transform="translate(81.07)" fill="none">
          <path d="M50,0H481a50,50,0,0,1,50,50V614a50,50,0,0,1-50,50H50A50,50,0,0,1,0,614V50A50,50,0,0,1,50,0Z" stroke="none"/>
          <path d="M 50 3 C 43.65374755859375 3 37.49884033203125 4.24224853515625 31.7064208984375 6.6922607421875 C 26.1099853515625 9.059326171875 21.08334350585938 12.4486083984375 16.7659912109375 16.7659912109375 C 12.4486083984375 21.08331298828125 9.059326171875 26.1099853515625 6.6922607421875 31.7064208984375 C 4.24224853515625 37.49884033203125 3 43.65374755859375 3 50 L 3 614 C 3 620.3462524414062 4.24224853515625 626.5011596679688 6.6922607421875 632.2935791015625 C 9.059326171875 637.8900146484375 12.4486083984375 642.9166870117188 16.7659912109375 647.2340087890625 C 21.08334350585938 651.5513916015625 26.1099853515625 654.940673828125 31.7064208984375 657.3077392578125 C 37.49884033203125 659.7577514648438 43.65374755859375 661 50 661 L 481 661 C 487.3462524414062 661 493.5011596679688 659.7577514648438 499.2935791015625 657.3077392578125 C 504.8900146484375 654.940673828125 509.9166564941406 651.5513916015625 514.2340087890625 647.2340087890625 C 518.5513916015625 642.9166870117188 521.940673828125 637.8900146484375 524.3077392578125 632.2935791015625 C 526.7577514648438 626.5011596679688 528 620.3462524414062 528 614 L 528 50 C 528 43.65374755859375 526.7577514648438 37.49884033203125 524.3077392578125 31.7064208984375 C 521.940673828125 26.1099853515625 518.5513916015625 21.08331298828125 514.2340087890625 16.7659912109375 C 509.9166564941406 12.4486083984375 504.8900146484375 9.059326171875 499.2935791015625 6.6922607421875 C 493.5011596679688 4.24224853515625 487.3462524414062 3 481 3 L 50 3 M 50 0 L 481 0 C 508.6142578125 0 531 22.3857421875 531 50 L 531 614 C 531 641.6142578125 508.6142578125 664 481 664 L 50 664 C 22.3857421875 664 0 641.6142578125 0 614 L 0 50 C 0 22.3857421875 22.3857421875 0 50 0 Z" stroke="none" fill="#f68c1f"/>
        </g>
      </g>
      <g id="WEBsite_Development" data-name="WEBsite Development" transform="translate(1015.932 404.51)">
        <g id="Group_25" data-name="Group 25" transform="translate(484.294 40.632)">
          <g id="Group_5" data-name="Group 5" transform="translate(42.564 219.907)">
            <path id="Path_1" data-name="Path 1" d="M617.334,246.694c-15.543-8.974-28.144-30.708-28.144-48.543,0-6.617,1.753-11.736,4.732-15.129-8.53.618-14.3,7.76-14.3,19.811,0,17.837,12.6,39.569,28.142,48.543,9.767,5.638,18.339,4.864,23.38-.9C627.065,250.778,622.362,249.6,617.334,246.694Z" transform="translate(-559.232 -149.039)" fill="#72b5e8"/>
            <path id="Path_2" data-name="Path 2" d="M655.018,254.851a55.379,55.379,0,0,0-.482-6.824l11.376-1.439a102.881,102.881,0,0,0-5.154-17.223l-12.963-3.92a91.182,91.182,0,0,0-8.068-13.915l3.1-13.082a103.8,103.8,0,0,0-12.413-13.082l-6.98,9.025a55.86,55.86,0,0,0-5.7-3.845,43.834,43.834,0,0,0-5.7-2.74l-6.976-17.083a34.556,34.556,0,0,0-12.416-1.252l3.1,16.667a17.806,17.806,0,0,0-8.066,4.6l-12.963-11.047a33.822,33.822,0,0,0-5.156,11.268l11.376,14.574a42.977,42.977,0,0,0-.482,6.269,55.3,55.3,0,0,0,.482,6.82l-11.376,1.441a102.753,102.753,0,0,0,5.156,17.223l12.961,3.92a91.184,91.184,0,0,0,8.068,13.915l-3.1,13.082a103.664,103.664,0,0,0,12.416,13.082l6.976-9.025a56.275,56.275,0,0,0,5.7,3.845,43.814,43.814,0,0,0,5.7,2.74l6.98,17.083a34.539,34.539,0,0,0,12.413,1.253l-3.1-16.667a17.8,17.8,0,0,0,8.068-4.6l12.963,11.047a33.86,33.86,0,0,0,5.154-11.268l-11.376-14.576A42.929,42.929,0,0,0,655.018,254.851Zm-36.924,10.567c-15.543-8.974-28.142-30.706-28.142-48.543s12.6-25.019,28.142-16.045,28.145,30.706,28.145,48.543S633.638,274.393,618.094,265.418Z" transform="translate(-569.561 -163.082)" fill="#a8cff0"/>
            <path id="Path_3" data-name="Path 3" d="M604.954,184.017l-6.977-17.083-10.9,6.262,6.977,17.083Z" transform="translate(-551.58 -165.555)" fill="#72b5e8"/>
            <path id="Path_4" data-name="Path 4" d="M590.517,181.626a43.838,43.838,0,0,1,5.7,2.74,56.112,56.112,0,0,1,5.7,3.845l6.976-9.025,0,0s-1.18-.74-1.775-1.084a43.826,43.826,0,0,0-5.7-2.74Z" transform="translate(-548.046 -156.901)" fill="#d1ebff"/>
            <path id="Path_5" data-name="Path 5" d="M604.266,167.634a34.547,34.547,0,0,0-12.415-1.252l-10.9,6.262a34.557,34.557,0,0,1,12.416,1.252Z" transform="translate(-557.869 -166.254)" fill="#d1ebff"/>
            <path id="Path_6" data-name="Path 6" d="M622.9,187.242a103.79,103.79,0,0,0-12.413-13.082l-10.9,6.262A103.792,103.792,0,0,1,612,193.5Z" transform="translate(-538.732 -158.137)" fill="#d1ebff"/>
            <path id="Path_7" data-name="Path 7" d="M607.288,186.877l-3.106,13.081,10.9-6.262,3.106-13.081Z" transform="translate(-534.017 -151.51)" fill="#72b5e8"/>
            <path id="Path_8" data-name="Path 8" d="M604.182,193.332a91.186,91.186,0,0,1,8.068,13.915l10.9-6.262a91.006,91.006,0,0,0-8.068-13.915Z" transform="translate(-534.016 -144.883)" fill="#72b5e8"/>
            <path id="Path_9" data-name="Path 9" d="M608.163,200.2l12.963,3.92,10.9-6.262-12.962-3.92Z" transform="translate(-529.93 -137.834)" fill="#d1ebff"/>
            <path id="Path_10" data-name="Path 10" d="M614.559,202.132a102.869,102.869,0,0,1,5.154,17.223l10.9-6.262a102.937,102.937,0,0,0-5.156-17.223Z" transform="translate(-523.362 -135.848)" fill="#72b5e8"/>
            <path id="Path_11" data-name="Path 11" d="M593.134,184.069l-.9-4.848-9.225-7.861-10.9,6.262,12.963,11.047A17.806,17.806,0,0,1,593.134,184.069Z" transform="translate(-566.949 -161.012)" fill="#72b5e8"/>
            <path id="Path_12" data-name="Path 12" d="M619.713,224.99a33.857,33.857,0,0,1-5.154,11.268L625.46,230a33.86,33.86,0,0,0,5.156-11.268Z" transform="translate(-523.362 -112.38)" fill="#72b5e8"/>
            <path id="Path_13" data-name="Path 13" d="M622.393,215.721a43.28,43.28,0,0,0,.48-6.266c0-.657-.043-1.325-.079-1.992l-11.3,1.431a55.386,55.386,0,0,1,.482,6.822,42.945,42.945,0,0,1-.482,6.267Z" transform="translate(-526.514 -123.947)" fill="#72b5e8"/>
            <path id="Path_14" data-name="Path 14" d="M611.489,217.8l11.376,14.575,10.9-6.262-11.376-14.575Z" transform="translate(-526.514 -119.764)" fill="#d1ebff"/>
            <path id="Path_15" data-name="Path 15" d="M612.25,221.927a17.8,17.8,0,0,1-8.068,4.6l3.1,16.667,10.9-6.262-2.2-11.82Z" transform="translate(-534.016 -109.096)" fill="#72b5e8"/>
            <path id="Path_16" data-name="Path 16" d="M580.527,191.194l-10.966,6.437,11.376-1.441C580.726,194.508,580.6,192.844,580.527,191.194Z" transform="translate(-569.561 -140.649)" fill="#d1ebff"/>
            <path id="Path_17" data-name="Path 17" d="M594.051,220.125l-6.976,9.025,10.982-6.25C596.706,222.034,595.366,221.116,594.051,220.125Z" transform="translate(-551.58 -110.946)" fill="#72b5e8"/>
            <g id="Group_4" data-name="Group 4" transform="translate(0.547 6.211)" style="mix-blend-mode: color-dodge;isolation: isolate">
              <path id="Path_18" data-name="Path 18" d="M582.608,178.087l-.033-.168c-.519.2-1.015.438-1.51.683C581.575,178.42,582.077,178.227,582.608,178.087Z" transform="translate(-558.296 -160.489)" fill="#fff"/>
              <path id="Path_19" data-name="Path 19" d="M579.275,193.755l-9.444,1.194c.036.184.087.369.125.551l9.375-1.186C579.31,194.126,579.3,193.941,579.275,193.755Z" transform="translate(-569.831 -144.231)" fill="#fff"/>
              <path id="Path_20" data-name="Path 20" d="M611.331,191.07l-3.107,13.082a91.015,91.015,0,0,1,8.068,13.915l12.963,3.92a102.988,102.988,0,0,1,5.03,16.671l1.285-.211a102.866,102.866,0,0,0-5.156-17.223l-12.963-3.92a91.118,91.118,0,0,0-8.068-13.917l3.107-13.08a104.107,104.107,0,0,0-12.415-13.084l-.426,1.437A104.547,104.547,0,0,1,611.331,191.07Z" transform="translate(-539.218 -161.203)" fill="#fff"/>
              <path id="Path_21" data-name="Path 21" d="M608.354,249.79c-15.543-8.974-28.142-30.708-28.142-48.543,0-7.878,2.47-13.652,6.56-16.89-4.724,3.042-7.63,9.11-7.63,17.654,0,17.835,12.6,39.569,28.144,48.543,7.847,4.53,14.939,4.931,20.042,1.931-.377.118-.772.193-1.163.278C621.312,254.525,615.117,253.694,608.354,249.79Z" transform="translate(-560.273 -153.879)" fill="#fff"/>
              <path id="Path_22" data-name="Path 22" d="M605.214,225.58a17.7,17.7,0,0,0,5.13-2.874l-.48-.407A17.8,17.8,0,0,1,605.214,225.58Z" transform="translate(-533.504 -114.925)" fill="#fff"/>
              <path id="Path_23" data-name="Path 23" d="M584.587,185.818c-.472.02,0-.369.48-.754l-12.484-10.64c-.353.49-.673,1.025-.085,1.09Z" transform="translate(-567.427 -164.077)" fill="#fff"/>
              <path id="Path_24" data-name="Path 24" d="M604.083,224.889l2.973,15.952c-.344-.018.334-.026.991-.087l-3.074-16.5C604.35,224.492,603.72,224.717,604.083,224.889Z" transform="translate(-534.775 -112.917)" fill="#fff" style="mix-blend-mode: color-dodge;isolation: isolate"/>
              <path id="Path_25" data-name="Path 25" d="M612.786,214.681a53.791,53.791,0,0,0-.423-6.262l-1.133.085a55.382,55.382,0,0,1,.482,6.822,42.962,42.962,0,0,1-.482,6.266L622.6,236.168a34.753,34.753,0,0,1-4.153,9.72l.073.9a33.86,33.86,0,0,0,5.156-11.268l-11.376-14.576A42.936,42.936,0,0,0,612.786,214.681Z" transform="translate(-527.329 -129.175)" fill="#fff"/>
              <path id="Path_26" data-name="Path 26" d="M592.611,171.2l6.978,17.083a43.96,43.96,0,0,1,5.7,2.74,56.572,56.572,0,0,1,5.7,3.845l.219-1.082a53.574,53.574,0,0,0-4.9-3.267,43.955,43.955,0,0,0-5.7-2.74L593.634,170.7a34.543,34.543,0,0,0-12.415-1.25l.134.715A40.632,40.632,0,0,1,592.611,171.2Z" transform="translate(-558.139 -169.319)" fill="#fff"/>
              <path id="Path_27" data-name="Path 27" d="M592.819,220.5l-5.835,7.547c.247.221.484.458.732.675l5.91-7.643C593.358,220.879,593.084,220.7,592.819,220.5Z" transform="translate(-552.22 -116.776)" fill="#fff"/>
            </g>
          </g>
          <g id="Group_7" data-name="Group 7" transform="translate(9.221 36.819)">
            <path id="Path_28" data-name="Path 28" d="M624.973,196.914c-23.382-13.5-42.335-46.19-42.335-73.019,0-9.953,2.637-17.652,7.118-22.756-12.831.928-21.511,11.67-21.511,29.8,0,26.829,18.953,59.521,42.333,73.021,14.689,8.48,27.587,7.314,35.169-1.35C639.609,203.057,632.534,201.279,624.973,196.914Z" transform="translate(-537.57 -50.018)" fill="#72b5e8"/>
            <path id="Path_29" data-name="Path 29" d="M681.657,209.186a83.539,83.539,0,0,0-.724-10.263l17.111-2.165a154.7,154.7,0,0,0-7.754-25.907l-19.5-5.9a136.974,136.974,0,0,0-12.138-20.934l4.673-19.677a156.377,156.377,0,0,0-18.674-19.681l-10.5,13.577a84.822,84.822,0,0,0-8.577-5.784A66.4,66.4,0,0,0,617,108.334L606.5,82.638a51.99,51.99,0,0,0-18.676-1.883l4.672,25.072a26.763,26.763,0,0,0-12.134,6.919l-19.5-16.619a50.934,50.934,0,0,0-7.756,16.951L570.222,135a64.8,64.8,0,0,0-.724,9.426,83.479,83.479,0,0,0,.724,10.261l-17.113,2.167a154.807,154.807,0,0,0,7.756,25.907l19.5,5.9A136.97,136.97,0,0,0,592.5,209.593l-4.672,19.677A156.113,156.113,0,0,0,606.5,248.951L617,235.375a84.884,84.884,0,0,0,8.581,5.784,66.241,66.241,0,0,0,8.577,4.122l10.5,25.7a51.97,51.97,0,0,0,18.674,1.883l-4.673-25.072a26.787,26.787,0,0,0,12.138-6.919l19.5,16.617a50.915,50.915,0,0,0,7.754-16.951l-17.111-21.923A64.822,64.822,0,0,0,681.657,209.186Zm-55.541,15.9c-23.38-13.5-42.333-46.192-42.333-73.021s18.953-37.635,42.333-24.136,42.335,46.19,42.335,73.019S649.5,238.581,626.116,225.083Z" transform="translate(-553.109 -71.143)" fill="#a8cff0"/>
            <path id="Path_30" data-name="Path 30" d="M606.349,102.636l-10.5-25.7-16.4,9.42,10.5,25.7Z" transform="translate(-526.06 -74.864)" fill="#72b5e8"/>
            <path id="Path_31" data-name="Path 31" d="M584.633,99.038a66.4,66.4,0,0,1,8.581,4.122,84.829,84.829,0,0,1,8.577,5.784l10.5-13.575,0,0s-1.773-1.113-2.671-1.631a66.254,66.254,0,0,0-8.579-4.122Z" transform="translate(-520.744 -61.847)" fill="#d1ebff"/>
            <path id="Path_32" data-name="Path 32" d="M605.316,77.99a51.989,51.989,0,0,0-18.676-1.883l-16.4,9.42a51.99,51.99,0,0,1,18.676,1.883Z" transform="translate(-535.521 -75.915)" fill="#d1ebff"/>
            <path id="Path_33" data-name="Path 33" d="M633.353,107.488a156.392,156.392,0,0,0-18.676-19.681l-16.4,9.42a156.382,156.382,0,0,1,18.674,19.681Z" transform="translate(-506.734 -63.706)" fill="#d1ebff"/>
            <path id="Path_34" data-name="Path 34" d="M609.859,106.937l-4.672,19.677,16.4-9.42,4.672-19.677Z" transform="translate(-499.641 -53.736)" fill="#72b5e8"/>
            <path id="Path_35" data-name="Path 35" d="M605.187,116.647a136.966,136.966,0,0,1,12.138,20.934l16.4-9.42a136.881,136.881,0,0,0-12.136-20.934Z" transform="translate(-499.642 -43.768)" fill="#72b5e8"/>
            <path id="Path_36" data-name="Path 36" d="M611.176,126.976l19.5,5.9,16.4-9.42-19.5-5.9Z" transform="translate(-493.493 -33.164)" fill="#d1ebff"/>
            <path id="Path_37" data-name="Path 37" d="M620.8,129.885a154.685,154.685,0,0,1,7.754,25.907l16.4-9.42a154.947,154.947,0,0,0-7.754-25.907Z" transform="translate(-483.615 -30.177)" fill="#72b5e8"/>
            <path id="Path_38" data-name="Path 38" d="M588.57,102.715l-1.358-7.292L573.336,83.6l-16.4,9.42,19.5,16.619A26.763,26.763,0,0,1,588.57,102.715Z" transform="translate(-549.18 -68.031)" fill="#72b5e8"/>
            <path id="Path_39" data-name="Path 39" d="M628.551,164.268a50.913,50.913,0,0,1-7.754,16.951l16.4-9.418a50.986,50.986,0,0,0,7.754-16.953Z" transform="translate(-483.615 5.123)" fill="#72b5e8"/>
            <path id="Path_40" data-name="Path 40" d="M632.58,150.324a64.782,64.782,0,0,0,.724-9.426c0-.987-.065-1.994-.118-3l-17.006,2.152a83.515,83.515,0,0,1,.724,10.263,64.8,64.8,0,0,1-.724,9.426Z" transform="translate(-488.355 -12.275)" fill="#72b5e8"/>
            <path id="Path_41" data-name="Path 41" d="M616.18,153.45l17.112,21.924,16.4-9.42-17.112-21.924Z" transform="translate(-488.355 -5.983)" fill="#d1ebff"/>
            <path id="Path_42" data-name="Path 42" d="M617.325,159.661a26.787,26.787,0,0,1-12.138,6.919l4.673,25.072,16.4-9.42-3.314-17.78Z" transform="translate(-499.642 10.065)" fill="#72b5e8"/>
            <path id="Path_43" data-name="Path 43" d="M569.605,113.431l-16.5,9.681,17.111-2.167C569.905,118.417,569.713,115.912,569.605,113.431Z" transform="translate(-553.108 -37.399)" fill="#d1ebff"/>
            <path id="Path_44" data-name="Path 44" d="M589.949,156.95l-10.494,13.577,16.519-9.4C593.942,159.822,591.927,158.442,589.949,156.95Z" transform="translate(-526.06 7.281)" fill="#72b5e8"/>
            <g id="Group_6" data-name="Group 6" transform="translate(0.827 9.343)" style="mix-blend-mode: color-dodge;isolation: isolate">
              <path id="Path_45" data-name="Path 45" d="M572.736,93.714l-.047-.251c-.782.3-1.53.657-2.274,1.025C571.18,94.213,571.938,93.925,572.736,93.714Z" transform="translate(-536.167 -67.242)" fill="#fff"/>
              <path id="Path_46" data-name="Path 46" d="M567.722,117.283l-14.2,1.8c.055.276.13.551.186.827l14.1-1.783C567.773,117.842,567.756,117.565,567.722,117.283Z" transform="translate(-553.517 -42.787)" fill="#fff"/>
              <path id="Path_47" data-name="Path 47" d="M615.942,113.245l-4.674,19.677a136.966,136.966,0,0,1,12.138,20.934l19.5,5.9a155.279,155.279,0,0,1,7.566,25.078l1.931-.318a154.748,154.748,0,0,0-7.754-25.907l-19.5-5.9a137.047,137.047,0,0,0-12.136-20.934l4.672-19.677a156.259,156.259,0,0,0-18.676-19.681l-.64,2.162A157.069,157.069,0,0,1,615.942,113.245Z" transform="translate(-507.468 -68.316)" fill="#fff"/>
              <path id="Path_48" data-name="Path 48" d="M611.463,201.573c-23.38-13.5-42.333-46.192-42.333-73.019,0-11.852,3.717-20.536,9.868-25.406-7.106,4.576-11.477,13.7-11.477,26.554,0,26.829,18.953,59.521,42.335,73.021,11.8,6.814,22.47,7.416,30.149,2.906-.568.174-1.163.288-1.753.418C630.954,208.694,621.635,207.444,611.463,201.573Z" transform="translate(-539.139 -57.3)" fill="#fff"/>
              <path id="Path_49" data-name="Path 49" d="M606.741,165.156a26.536,26.536,0,0,0,7.713-4.321l-.722-.616A26.7,26.7,0,0,1,606.741,165.156Z" transform="translate(-498.873 1.295)" fill="#fff"/>
              <path id="Path_50" data-name="Path 50" d="M575.713,105.345c-.711.03,0-.555.722-1.135l-18.777-16c-.533.738-1.013,1.542-.13,1.64Z" transform="translate(-549.902 -72.641)" fill="#fff"/>
              <path id="Path_51" data-name="Path 51" d="M605.04,164.117l4.471,23.994c-.517-.024.5-.039,1.49-.13l-4.625-24.819C605.442,163.521,604.493,163.857,605.04,164.117Z" transform="translate(-500.784 4.316)" fill="#fff" style="mix-blend-mode: color-dodge;isolation: isolate"/>
              <path id="Path_52" data-name="Path 52" d="M618.13,148.763a80.934,80.934,0,0,0-.638-9.422l-1.7.128a83.538,83.538,0,0,1,.723,10.263,64.778,64.778,0,0,1-.723,9.426L632.9,181.082a52.291,52.291,0,0,1-6.248,14.622l.111,1.358a50.916,50.916,0,0,0,7.754-16.951l-17.111-21.923A64.8,64.8,0,0,0,618.13,148.763Z" transform="translate(-489.584 -20.14)" fill="#fff"/>
              <path id="Path_53" data-name="Path 53" d="M587.783,83.36l10.5,25.7a66.084,66.084,0,0,1,8.579,4.12,85.171,85.171,0,0,1,8.577,5.784l.33-1.629a80.366,80.366,0,0,0-7.367-4.913,66.39,66.39,0,0,0-8.581-4.122L589.323,82.6a51.983,51.983,0,0,0-18.676-1.883l.2,1.078C575.774,81.67,582.282,81.842,587.783,83.36Z" transform="translate(-535.93 -80.525)" fill="#fff"/>
              <path id="Path_54" data-name="Path 54" d="M588.095,157.509l-8.776,11.351c.369.332.728.687,1.1,1.015l8.887-11.5C588.905,158.083,588.494,157.811,588.095,157.509Z" transform="translate(-527.027 -1.488)" fill="#fff"/>
            </g>
          </g>
          <path id="Path_55" data-name="Path 55" d="M599.328,77.6c.128-2.712,1.99-3.893,4.159-2.643a8.513,8.513,0,0,1,3.693,7.176c-.13,2.712-1.992,3.9-4.159,2.643A8.513,8.513,0,0,1,599.328,77.6Z" transform="translate(-496.443 -40.593)" fill="#eb4680"/>
          <path id="Path_56" data-name="Path 56" d="M593.339,237.1c.087-1.8,1.325-2.59,2.768-1.759a5.665,5.665,0,0,1,2.454,4.775c-.085,1.8-1.324,2.59-2.766,1.757A5.667,5.667,0,0,1,593.339,237.1Z" transform="translate(-502.589 124.244)" fill="#eb4680"/>
          <g id="Group_8" data-name="Group 8" transform="translate(169.002 219.848)">
            <path id="Path_57" data-name="Path 57" d="M632.962,176.583a1.013,1.013,0,0,1-.875-1.524l4.86-8.332a1.013,1.013,0,1,1,1.749,1.021l-3.551,6.088,7.168-2.207a1.014,1.014,0,0,1,.6,1.938l-9.651,2.971A1,1,0,0,1,632.962,176.583Z" transform="translate(-631.948 -166.225)" fill="#eb4680"/>
          </g>
          <g id="Group_10" data-name="Group 10" transform="translate(71.562 265.463)">
            <path id="Path_58" data-name="Path 58" d="M597.139,190.205c3.8,2.193,7.134,6.388,9.035,10.91a24.37,24.37,0,0,0,3-1.017c1.873-.756,4.3-.466,6.956,1.068,5.92,3.417,10.719,11.694,10.719,18.487,0,12.413-21.252,16.714-21.252,16.714s-20.21-27.014-20.21-39.429c0-3.387-1.437-4.43.495-5.541.166-.1,4.011-2.14,4.187-2.217C591.951,188.365,594.427,188.638,597.139,190.205Z" transform="translate(-582.843 -188.732)" fill="#d62d69"/>
            <path id="Path_59" data-name="Path 59" d="M594.586,191.158c4.126,2.381,7.7,7.124,9.493,12.079,1.791-2.886,5.369-3.5,9.493-1.119,5.92,3.417,10.719,11.694,10.719,18.487,0,12.413-20.212,16.09-20.212,16.09s-20.21-27.014-20.21-39.427C583.869,190.475,588.668,187.739,594.586,191.158Z" transform="translate(-583.869 -187.754)" fill="#eb4680"/>
            <g id="Group_9" data-name="Group 9" transform="translate(3.628 1.786)" style="mix-blend-mode: color-dodge;isolation: isolate">
              <path id="Path_60" data-name="Path 60" d="M592.161,191.487a24.451,24.451,0,0,1,9.971,12.1c.365-.586-.136-.367.365-.76-1.86-4.714-5.281-9.15-9.226-11.428-3.232-1.867-5.693-2.306-7.612-1.123C587.463,189.726,589.712,190.072,592.161,191.487Z" transform="translate(-585.659 -189.614)" fill="#fff" opacity="0.7"/>
              <path id="Path_61" data-name="Path 61" d="M602.392,196.583c-3.229-1.863-5.746-1.9-7.355-.9,1.8-.541,4.039-.2,6.481,1.206,5.92,3.417,10.719,11.694,10.719,18.487,0,5.766-4.363,9.647-9.035,12.15,5.219-2.446,9.906-6.035,9.906-12.454C613.109,208.277,608.312,200,602.392,196.583Z" transform="translate(-576.031 -184.054)" fill="#fff" opacity="0.7"/>
            </g>
          </g>
          <g id="Group_11" data-name="Group 11" transform="translate(107.237 38.884)">
            <path id="Path_62" data-name="Path 62" d="M667.331,266.876l-1.36-1.5c10.906-9.9,16.672-26.045,16.672-46.685,0-51.356-36.413-114.163-81.171-140l1.013-1.755c45.317,26.164,82.184,89.755,82.184,141.758C684.669,239.917,678.674,256.579,667.331,266.876Z" transform="translate(-601.472 -76.934)" fill="#eb4680"/>
          </g>
          <g id="Group_15" data-name="Group 15" transform="translate(130.417 190.181)">
            <g id="Group_12" data-name="Group 12" transform="translate(73.825)">
              <path id="Path_63" data-name="Path 63" d="M650.349,155.644h-.016a1.012,1.012,0,0,1-1-1.028q.012-1,.012-2.017a1.013,1.013,0,1,1,2.027,0q0,1.031-.012,2.045A1.015,1.015,0,0,1,650.349,155.644Z" transform="translate(-649.336 -151.587)" fill="#a8cff0"/>
            </g>
            <g id="Group_13" data-name="Group 13" transform="translate(8.017 8.064)">
              <path id="Path_64" data-name="Path 64" d="M627.906,221.781a1.013,1.013,0,0,1-.008-2.027c1.321-.01,2.649-.063,3.952-.162a1.014,1.014,0,1,1,.152,2.023c-1.348.1-2.724.156-4.088.166Zm-6.025-.233c-.03,0-.059,0-.087,0q-2.006-.17-4.055-.458a1.012,1.012,0,0,1-.863-1.143,1.032,1.032,0,0,1,1.143-.863q1.994.283,3.946.446a1.013,1.013,0,0,1-.083,2.023Zm16.023-.693a1.014,1.014,0,0,1-.18-2.01c1.3-.237,2.594-.525,3.851-.855a1.013,1.013,0,1,1,.515,1.96c-1.305.345-2.651.642-4,.89A1.148,1.148,0,0,1,637.9,220.855Zm9.657-2.746a1.012,1.012,0,0,1-.373-1.954c1.218-.484,2.428-1.019,3.6-1.6a1.013,1.013,0,0,1,.9,1.818c-1.216.6-2.477,1.157-3.743,1.66A.977.977,0,0,1,647.561,218.109Zm8.9-4.623a1.013,1.013,0,0,1-.557-1.858c1.1-.726,2.173-1.5,3.2-2.3a1.013,1.013,0,1,1,1.25,1.6c-1.066.837-2.187,1.644-3.332,2.4A.992.992,0,0,1,656.46,213.486Zm7.776-6.358a1.012,1.012,0,0,1-.717-1.729c.924-.926,1.824-1.9,2.675-2.894a1.014,1.014,0,0,1,1.54,1.319c-.884,1.032-1.82,2.043-2.783,3.008A1,1,0,0,1,664.236,207.129Zm6.392-7.738a1.013,1.013,0,0,1-.837-1.585c.742-1.084,1.455-2.205,2.122-3.336a1.013,1.013,0,1,1,1.745,1.03c-.689,1.167-1.427,2.331-2.193,3.449A1.012,1.012,0,0,1,670.629,199.391Zm4.973-8.727a1.011,1.011,0,0,1-.916-1.445q.836-1.766,1.585-3.632a1.014,1.014,0,1,1,1.881.758q-.775,1.915-1.633,3.739A1.009,1.009,0,0,1,675.6,190.664Zm3.642-9.363a.989.989,0,0,1-.3-.047,1.011,1.011,0,0,1-.661-1.271q.587-1.87,1.1-3.818a1.012,1.012,0,1,1,1.958.517q-.523,1.994-1.129,3.911A1.014,1.014,0,0,1,679.244,181.3Zm2.46-9.748a1.089,1.089,0,0,1-.2-.018,1.012,1.012,0,0,1-.8-1.188q.377-1.93.683-3.924a1.013,1.013,0,0,1,2,.306q-.31,2.037-.7,4A1.013,1.013,0,0,1,681.7,171.552Zm1.433-9.949a.82.82,0,0,1-.1-.006,1.014,1.014,0,0,1-.912-1.1q.192-1.961.316-3.978a.983.983,0,0,1,1.076-.946,1.01,1.01,0,0,1,.946,1.074q-.128,2.052-.32,4.043A1.015,1.015,0,0,1,683.137,161.6Z" transform="translate(-616.865 -155.566)" fill="#a8cff0"/>
            </g>
            <g id="Group_14" data-name="Group 14" transform="translate(0 70.007)">
              <path id="Path_65" data-name="Path 65" d="M615.9,188.619a1,1,0,0,1-.217-.024q-1-.219-2-.468a1.014,1.014,0,1,1,.487-1.968q.979.243,1.948.458a1.013,1.013,0,0,1-.219,2Z" transform="translate(-612.909 -186.13)" fill="#a8cff0"/>
            </g>
          </g>
          <g id="Group_19" data-name="Group 19" transform="translate(0)">
            <g id="Group_16" data-name="Group 16" transform="translate(2.268 98.244)">
              <path id="Path_66" data-name="Path 66" d="M551.038,110.25a1.016,1.016,0,0,1-1-.833c-.122-.673-.239-1.342-.351-2.012a1.014,1.014,0,0,1,2-.332q.164.991.345,1.984a1.014,1.014,0,0,1-.817,1.177A1.087,1.087,0,0,1,551.038,110.25Z" transform="translate(-549.678 -106.223)" fill="#a8cff0"/>
            </g>
            <g id="Group_17" data-name="Group 17">
              <path id="Path_67" data-name="Path 67" d="M739.024,180.605a1.015,1.015,0,0,1-.94-.632q-.763-1.894-1.571-3.778a1.014,1.014,0,0,1,1.865-.8q.812,1.9,1.587,3.814a1.016,1.016,0,0,1-.562,1.319A1,1,0,0,1,739.024,180.605Zm-4.066-9.432a1.013,1.013,0,0,1-.922-.594q-.848-1.857-1.733-3.709a1.014,1.014,0,0,1,1.83-.874q.891,1.867,1.747,3.741a1.016,1.016,0,0,1-.5,1.344A1.04,1.04,0,0,1,734.958,171.173Zm-4.465-9.25a1.021,1.021,0,0,1-.906-.555c-.614-1.214-1.244-2.426-1.881-3.632a1.013,1.013,0,1,1,1.789-.948q.967,1.824,1.9,3.662a1.017,1.017,0,0,1-.9,1.473Zm-4.84-9.057a1,1,0,0,1-.882-.517q-1.006-1.781-2.031-3.551a1.012,1.012,0,1,1,1.749-1.019q1.04,1.781,2.047,3.577a1.015,1.015,0,0,1-.387,1.38A1,1,0,0,1,725.654,152.866Zm-174.732-.934a1.013,1.013,0,0,1-1-.88q-.271-2.055-.49-4.1a1.013,1.013,0,0,1,2.014-.217q.219,2.019.486,4.051a1.009,1.009,0,0,1-1.007,1.145Zm169.53-7.91a1.013,1.013,0,0,1-.863-.482q-1.073-1.739-2.17-3.462a1.012,1.012,0,1,1,1.7-1.09q1.113,1.733,2.191,3.49a1.012,1.012,0,0,1-.861,1.544Zm-170.553-2.3a1.015,1.015,0,0,1-1.009-.944q-.14-2.07-.221-4.126a1.013,1.013,0,0,1,.973-1.052l.04,0a1.014,1.014,0,0,1,1.013.975q.076,2.025.217,4.07a1.012,1.012,0,0,1-.94,1.078ZM714.89,135.4a1.015,1.015,0,0,1-.841-.448q-1.143-1.693-2.312-3.366a1.013,1.013,0,0,1,1.662-1.159q1.177,1.684,2.331,3.393a1.014,1.014,0,0,1-.839,1.581Zm-165.318-3.93h0a1.014,1.014,0,0,1-1.009-1.017q.009-2.1.081-4.136a1.016,1.016,0,0,1,1.013-.977l.038,0a1.013,1.013,0,0,1,.975,1.05q-.073,2.006-.081,4.07A1.013,1.013,0,0,1,549.572,131.472Zm159.41-4.449a1.013,1.013,0,0,1-.817-.411q-1.213-1.645-2.452-3.265a1.014,1.014,0,0,1,1.611-1.232q1.246,1.635,2.473,3.293a1.012,1.012,0,0,1-.215,1.417A1,1,0,0,1,708.983,127.024Zm-158.96-5.8c-.03,0-.059,0-.089,0a1.013,1.013,0,0,1-.922-1.1q.176-2.092.428-4.118a1.013,1.013,0,0,1,2.01.247q-.243,1.991-.419,4.043A1.014,1.014,0,0,1,550.022,121.228Zm152.7-2.319a1.013,1.013,0,0,1-.79-.379q-1.28-1.59-2.586-3.151a1.013,1.013,0,0,1,1.555-1.3q1.319,1.575,2.61,3.18a1.013,1.013,0,0,1-.788,1.65Zm-6.6-7.831a1.009,1.009,0,0,1-.76-.342q-1.35-1.532-2.724-3.03a1.013,1.013,0,0,1,1.492-1.37q1.389,1.514,2.752,3.06a1.012,1.012,0,0,1-.76,1.682Zm-144.745-.016a.945.945,0,0,1-.184-.016,1.014,1.014,0,0,1-.815-1.178q.38-2.07.835-4.063a1.014,1.014,0,0,1,1.976.452q-.447,1.949-.817,3.974A1.014,1.014,0,0,1,551.37,111.062Zm137.784-7.5a1.009,1.009,0,0,1-.726-.308c-.955-.979-1.909-1.948-2.876-2.9a1.013,1.013,0,1,1,1.425-1.441q1.462,1.447,2.9,2.931a1.014,1.014,0,0,1-.727,1.721ZM553.768,101.1a1.016,1.016,0,0,1-.971-1.309q.614-2.016,1.311-3.942a1.012,1.012,0,1,1,1.9.687q-.681,1.882-1.275,3.845A1.013,1.013,0,0,1,553.768,101.1Zm128.058-4.722a1.011,1.011,0,0,1-.691-.272q-1.5-1.4-3.016-2.75a1.013,1.013,0,1,1,1.35-1.512q1.535,1.368,3.048,2.781a1.012,1.012,0,0,1-.691,1.753ZM557.383,91.508a1.025,1.025,0,0,1-.422-.091,1.013,1.013,0,0,1-.5-1.346q.879-1.918,1.852-3.729a1.013,1.013,0,0,1,1.786.959q-.946,1.757-1.8,3.616A1.011,1.011,0,0,1,557.383,91.508ZM674.13,89.587a1.011,1.011,0,0,1-.649-.235q-1.571-1.313-3.164-2.578a1.014,1.014,0,1,1,1.263-1.587q1.611,1.283,3.2,2.608a1.013,1.013,0,0,1-.651,1.792Zm-8.064-6.343a1.006,1.006,0,0,1-.6-.2q-1.648-1.216-3.312-2.381A1.013,1.013,0,0,1,663.315,79q1.684,1.18,3.352,2.41a1.014,1.014,0,0,1-.6,1.83Zm-103.691-.679a1.012,1.012,0,0,1-.841-1.579c.782-1.165,1.609-2.3,2.454-3.378a1.013,1.013,0,1,1,1.595,1.25c-.817,1.038-1.611,2.134-2.367,3.259A1.012,1.012,0,0,1,562.375,82.565Zm95.252-5.15a1.028,1.028,0,0,1-.549-.16q-1.721-1.107-3.46-2.158a1.013,1.013,0,1,1,1.05-1.733q1.76,1.061,3.506,2.185a1.013,1.013,0,0,1-.547,1.867ZM568.84,74.628a1.012,1.012,0,0,1-.719-1.725c.979-.991,2.006-1.95,3.052-2.854a1.014,1.014,0,1,1,1.323,1.536c-1.005.867-1.994,1.79-2.935,2.742A1.011,1.011,0,0,1,568.84,74.628ZM648.8,72.176a1.018,1.018,0,0,1-.484-.124q-1.812-.988-3.605-1.893a1.014,1.014,0,1,1,.914-1.81q1.818.921,3.66,1.923a1.013,1.013,0,0,1-.484,1.9ZM576.74,68.119a1.014,1.014,0,0,1-.561-1.858c1.161-.768,2.367-1.494,3.585-2.16a1.013,1.013,0,0,1,.969,1.779c-1.165.636-2.321,1.334-3.433,2.071A1,1,0,0,1,576.74,68.119Zm62.87-.484a1.012,1.012,0,0,1-.409-.087q-1.885-.833-3.749-1.577a1.013,1.013,0,1,1,.752-1.881q1.894.754,3.816,1.6a1.014,1.014,0,0,1-.409,1.942Zm-9.568-3.7a1.021,1.021,0,0,1-.316-.051q-1.954-.644-3.883-1.186a1.014,1.014,0,1,1,.551-1.952q1.967.553,3.966,1.212a1.014,1.014,0,0,1-.318,1.976ZM585.819,63.4a1.013,1.013,0,0,1-.371-1.956c1.281-.5,2.608-.963,3.954-1.366a1.013,1.013,0,0,1,.582,1.942c-1.289.387-2.566.827-3.794,1.311A1.035,1.035,0,0,1,585.819,63.4Zm34.326-2.122a1.021,1.021,0,0,1-.207-.02q-2.012-.41-3.989-.707a1.015,1.015,0,0,1,.3-2.006q2.028.307,4.094.73a1.012,1.012,0,0,1-.2,2Zm-24.472-.634a1.013,1.013,0,0,1-.174-2.01c1.354-.239,2.746-.434,4.135-.574a1.014,1.014,0,0,1,.207,2.017c-1.34.136-2.681.32-3.988.551A1.042,1.042,0,0,1,595.673,60.646Zm14.308-.742-.063,0q-2.043-.128-4.039-.128a1.013,1.013,0,1,1,0-2.027q2.058,0,4.165.132a1.013,1.013,0,0,1-.063,2.025Z" transform="translate(-548.559 -57.748)" fill="#a8cff0"/>
            </g>
            <g id="Group_18" data-name="Group 18" transform="translate(191.739 126.69)">
              <path id="Path_68" data-name="Path 68" d="M644.882,124.188a1.012,1.012,0,0,1-.951-.667l-.7-1.895a1.013,1.013,0,1,1,1.9-.705l.705,1.907a1.014,1.014,0,0,1-.6,1.3A1.043,1.043,0,0,1,644.882,124.188Z" transform="translate(-643.167 -120.259)" fill="#a8cff0"/>
            </g>
          </g>
          <g id="Group_23" data-name="Group 23" transform="translate(97.271 277.905)">
            <g id="Group_20" data-name="Group 20" transform="translate(57.642)">
              <path id="Path_69" data-name="Path 69" d="M626.782,198.772a1.017,1.017,0,0,1-.94-.634q-.377-.933-.766-1.863a1.013,1.013,0,0,1,1.869-.784q.4.942.776,1.887a1.013,1.013,0,0,1-.559,1.319A1,1,0,0,1,626.782,198.772Z" transform="translate(-624.996 -194.871)" fill="#eb4680"/>
            </g>
            <g id="Group_21" data-name="Group 21" transform="translate(7.213 7.503)">
              <path id="Path_70" data-name="Path 70" d="M624.362,289.315h0c-1.352-.006-2.732-.075-4.1-.2a1.018,1.018,0,0,1-.914-1.1,1.052,1.052,0,0,1,1.1-.914c1.309.124,2.627.188,3.918.195a1.013,1.013,0,0,1,0,2.027Zm6-.424a1.013,1.013,0,0,1-.148-2.014,34.555,34.555,0,0,0,3.814-.788,1.013,1.013,0,1,1,.523,1.958,36.7,36.7,0,0,1-4.037.833A.98.98,0,0,1,630.359,288.891Zm-15.95-.705a.974.974,0,0,1-.215-.024c-1.293-.28-2.626-.618-3.958-1a1.013,1.013,0,1,1,.561-1.948c1.289.373,2.576.7,3.824.969a1.014,1.014,0,0,1-.213,2Zm25.524-2.169a1.013,1.013,0,0,1-.432-1.929,30.706,30.706,0,0,0,3.4-1.871,1.013,1.013,0,1,1,1.084,1.71,32.667,32.667,0,0,1-3.624,1.994A1.019,1.019,0,0,1,639.933,286.018Zm-35.112-.768a.982.982,0,0,1-.369-.069q-1.857-.73-3.747-1.591a1.014,1.014,0,0,1,.843-1.844q1.836.839,3.644,1.548a1.013,1.013,0,0,1-.371,1.956Zm43.379-4.834a1.012,1.012,0,0,1-.687-1.755,34.011,34.011,0,0,0,2.694-2.811,1.012,1.012,0,0,1,1.54,1.313,35.26,35.26,0,0,1-2.858,2.981A1,1,0,0,1,648.2,280.416Zm6.3-7.768a1.015,1.015,0,0,1-.865-1.542c.667-1.09,1.3-2.246,1.881-3.433a1.013,1.013,0,1,1,1.82.89c-.61,1.242-1.273,2.454-1.97,3.6A1.013,1.013,0,0,1,654.5,272.648Zm4.22-9.08a1.013,1.013,0,0,1-.959-1.342c.417-1.216.8-2.483,1.141-3.77a1,1,0,0,1,1.238-.721,1.016,1.016,0,0,1,.721,1.24c-.353,1.332-.752,2.645-1.183,3.907A1.014,1.014,0,0,1,658.722,263.568Zm2.41-9.726a1.2,1.2,0,0,1-.168-.012,1.013,1.013,0,0,1-.833-1.167q.319-1.912.531-3.918a1.013,1.013,0,1,1,2.014.213q-.219,2.067-.545,4.037A1.012,1.012,0,0,1,661.132,253.842Zm.946-9.981h-.032a1.016,1.016,0,0,1-.981-1.048c.03-.908.045-1.832.045-2.766l-.008-1.2a1.015,1.015,0,0,1,1-1.028,1.068,1.068,0,0,1,1.028,1l.008,1.23q0,1.435-.045,2.833A1.015,1.015,0,0,1,662.079,243.861Zm-.233-10.034a1.012,1.012,0,0,1-1.009-.934q-.149-1.973-.373-3.964a1.013,1.013,0,0,1,2.014-.225q.228,2.025.381,4.033a1.016,1.016,0,0,1-.934,1.088C661.9,233.827,661.872,233.827,661.846,233.827Zm-1.214-9.965a1.012,1.012,0,0,1-1-.845q-.325-1.952-.722-3.916a1.013,1.013,0,1,1,1.986-.4q.4,2,.734,3.978a1.015,1.015,0,0,1-.831,1.169A1.2,1.2,0,0,1,660.632,223.861Zm-2.055-9.821a1.018,1.018,0,0,1-.985-.766q-.48-1.93-1.028-3.857a1.014,1.014,0,0,1,1.952-.549q.553,1.958,1.044,3.911a1.017,1.017,0,0,1-.736,1.23A1.045,1.045,0,0,1,658.577,214.04Zm-2.8-9.643a1.013,1.013,0,0,1-.963-.7q-.623-1.888-1.3-3.772a1.013,1.013,0,1,1,1.907-.685q.684,1.909,1.313,3.824a1.012,1.012,0,0,1-.961,1.33Z" transform="translate(-600.113 -198.573)" fill="#eb4680"/>
            </g>
            <g id="Group_22" data-name="Group 22" transform="translate(0 86.85)">
              <path id="Path_71" data-name="Path 71" d="M599.336,240.747a1,1,0,0,1-.486-.124q-.891-.489-1.788-1.005a1.013,1.013,0,0,1,1.009-1.757c.586.336,1.171.667,1.753.985a1.013,1.013,0,0,1-.488,1.9Z" transform="translate(-596.554 -237.725)" fill="#eb4680"/>
            </g>
          </g>
          <g id="Group_24" data-name="Group 24" transform="translate(153.285 275.37)">
            <path id="Path_72" data-name="Path 72" d="M625.206,201.051l-.063,0a1.013,1.013,0,0,1-.948-1.074l.336-5.405a1.015,1.015,0,0,1,1.615-.752l4.56,3.378a1.013,1.013,0,0,1-1.208,1.627l-3.062-2.268-.219,3.545A1.014,1.014,0,0,1,625.206,201.051Z" transform="translate(-624.193 -193.621)" fill="#eb4680"/>
          </g>
        </g>
        <path id="Path_73" data-name="Path 73" d="M464.363,114.792c-.036-6.654-9.408-12.063-20.931-12.083s-20.836,5.354-20.8,12.008c.034,6.088,7.892,11.124,18.058,11.953l.018,3.37c-1.927.3-3.35,1.3-3.342,2.507l.061,11.512c.008,1.441,2.039,2.612,4.536,2.616l3.419.006c2.5.006,4.513-1.159,4.505-2.6l-.061-11.512c-.008-1.208-1.441-2.217-3.37-2.519l-.018-3.37C456.591,125.888,464.4,120.882,464.363,114.792Z" transform="translate(-193.553 29.045)" fill="#fff"/>
        <g id="Group_27" data-name="Group 27" transform="translate(135.7 0)">
          <path id="Path_74" data-name="Path 74" d="M764.255,649.915l-362.3-209.3c-14.027-8.1-25.4-29.823-25.4-48.525V62.507c0-18.7,11.372-27.3,25.4-19.2l362.3,209.3c14.027,8.1,25.4,29.825,25.4,48.527V630.715C789.654,649.417,778.282,658.014,764.255,649.915Z" transform="translate(-376.556 -35.071)" fill="#d1ebff"/>
          <path id="Path_75" data-name="Path 75" d="M769.435,250.046l-362.3-209.3c-5.551-3.2-10.685-3.794-14.862-2.181-.531.2-10.458,5.332-10.956,5.608l-.024.016c4.327-2.1,9.817-1.708,15.8,1.745l362.3,209.3c14.027,8.1,25.4,29.825,25.4,48.527V633.343c0,11.672-4.43,19.405-11.169,21.6a4.214,4.214,0,0,0,2.225-.758c.32-.184,10.851-5.885,11.157-6.1,4.823-3.378,7.829-10.322,7.829-19.934V298.573C794.833,279.87,783.462,258.144,769.435,250.046Z" transform="translate(-371.694 -37.699)" fill="#3f92d1"/>
          <path id="Path_76" data-name="Path 76" d="M766.592,250.719l-362.3-209.3c-5.549-3.2-10.683-3.8-14.86-2.183-.533.207-7.614,3.968-8.113,4.244l-.024.016c4.327-2.1,9.817-1.708,15.8,1.745l362.3,209.3Z" transform="translate(-371.694 -37.008)" fill="#4f9fdb"/>
          <path id="Path_77" data-name="Path 77" d="M759.739,252.29l-362.3-209.3c-5.752-3.322-11.039-3.794-15.3-1.956,3.634-.576,7.807.3,12.251,2.87l362.3,209.3c14.027,8.1,25.4,29.825,25.4,48.527V631.315c0,11.031-3.976,18.508-10.1,21.154,7.835-1.242,13.147-9.292,13.147-22.068V300.817C785.138,282.115,773.766,260.389,759.739,252.29Z" transform="translate(-370.822 -35.366)" fill="#fff" style="mix-blend-mode: screen;isolation: isolate"/>
          <path id="Path_78" data-name="Path 78" d="M383.6,65.7V365.975c0,14.669,6.982,29,18.268,36.176L760.3,609.192l.594.34a4.862,4.862,0,0,0,7.27-4.217V287.856Z" transform="translate(-369.329 -8.956)" fill="#03336e"/>
          <path id="Path_79" data-name="Path 79" d="M767.648,606.829c-.255-.144-.46-.261-.594-.338L408.618,399.449c-11.286-7.172-18.268-21.509-18.268-36.176V69.6L383.6,65.7V365.975c0,14.669,6.982,29,18.268,36.176L760.3,609.192l.594.34a4.847,4.847,0,0,0,6.97-2.616C767.794,606.88,767.719,606.87,767.648,606.829Z" transform="translate(-369.329 -8.956)" fill="#001a46"/>
          <g id="Group_26" data-name="Group 26" transform="translate(342.6 216.954)">
            <path id="Path_80" data-name="Path 80" d="M563.392,160.028a15.4,15.4,0,0,0,6.99,12.057c3.861,2.227,6.99.444,6.99-3.986a15.4,15.4,0,0,0-6.99-12.055C566.521,153.814,563.392,155.6,563.392,160.028Z" transform="translate(-527.335 -134.138)" fill="#fc0"/>
            <path id="Path_81" data-name="Path 81" d="M554.5,154.861a15.4,15.4,0,0,0,6.99,12.055c3.859,2.229,6.99.446,6.99-3.984a15.407,15.407,0,0,0-6.99-12.057C557.626,148.648,554.5,150.431,554.5,154.861Z" transform="translate(-536.468 -139.443)" fill="#eb4680"/>
            <path id="Path_82" data-name="Path 82" d="M545.6,149.693a15.4,15.4,0,0,0,6.99,12.057c3.861,2.229,6.99.444,6.99-3.984a15.4,15.4,0,0,0-6.99-12.057C548.73,143.479,545.6,145.265,545.6,149.693Z" transform="translate(-545.601 -144.748)" fill="#0fbab8"/>
          </g>
        </g>
        <path id="Path_83" data-name="Path 83" d="M515.993,150.273,489.7,135.095c-2.655-1.534-4.809-.306-4.809,2.742a10.6,10.6,0,0,0,4.809,8.3l26.29,15.178c2.655,1.532,4.809.306,4.809-2.742A10.6,10.6,0,0,0,515.993,150.273Zm43.28,24.989-26.288-15.178c-2.657-1.534-4.809-.306-4.809,2.74a10.592,10.592,0,0,0,4.809,8.3L559.273,186.3c2.657,1.534,4.809.306,4.809-2.742A10.591,10.591,0,0,0,559.273,175.261Zm43.282,24.987-26.29-15.178c-2.655-1.532-4.809-.306-4.809,2.742a10.6,10.6,0,0,0,4.809,8.3l26.29,15.178c2.655,1.532,4.807.306,4.807-2.742A10.6,10.6,0,0,0,602.555,200.248Zm43.28,24.989-26.29-15.178c-2.655-1.534-4.807-.306-4.807,2.742a10.6,10.6,0,0,0,4.807,8.293l26.29,15.178c2.655,1.534,4.809.306,4.809-2.74A10.6,10.6,0,0,0,645.834,225.237Z" transform="translate(-129.628 61.616)" fill="#72b5e8"/>
        <g id="Group_31" data-name="Group 31" transform="translate(16.827 84.254)">
          <g id="Group_28" data-name="Group 28" transform="translate(18.432 0)">
            <path id="Path_84" data-name="Path 84" d="M448.77,156.786V269.923l12.375-7.244V149.22Z" transform="translate(-201.975 -7.457)" fill="#2672ab"/>
            <path id="Path_85" data-name="Path 85" d="M573.838,224.826V337.963L327,196.408V82.949Z" transform="translate(-326.997 -75.497)" fill="#3f92d1"/>
            <path id="Path_86" data-name="Path 86" d="M327,86.723,573.838,228.6l12.329-7.565L339.245,79.272Z" transform="translate(-326.997 -79.272)" fill="#72b5e8"/>
            <path id="Path_87" data-name="Path 87" d="M327,82.949,573.838,224.825l12.329-7.565L573.8,223.1Z" transform="translate(-326.997 -75.497)" fill="#fff" opacity="0.7"/>
          </g>
          <g id="Group_29" data-name="Group 29" transform="translate(117.479 82.991)">
            <path id="Path_88" data-name="Path 88" d="M470.42,213.4v-4.8l-77.905-44.287v4.8Z" transform="translate(-358.778 -74.958)" fill="#fff"/>
            <path id="Path_89" data-name="Path 89" d="M375.868,120.221v4.8l130.951,74.914v-4.8Z" transform="translate(-375.868 -120.221)" fill="#fff"/>
            <path id="Path_90" data-name="Path 90" d="M421.977,166.542l-46.108-26.621v4.8l46.108,26.621Z" transform="translate(-375.868 -99.995)" fill="#fff"/>
            <path id="Path_91" data-name="Path 91" d="M414.015,171.8v4.8l19.047,10.306v-4.8Z" transform="translate(-336.704 -67.27)" fill="#fff"/>
            <path id="Path_92" data-name="Path 92" d="M450.224,173l-74.355-42.929v4.8L450.224,177.8Z" transform="translate(-375.868 -110.108)" fill="#fff"/>
            <path id="Path_93" data-name="Path 93" d="M403.1,150.721,375.868,135v4.8L403.1,155.524Z" transform="translate(-375.868 -105.051)" fill="#fff"/>
            <path id="Path_94" data-name="Path 94" d="M385.89,160.362l52.271,30.179v-4.8L385.89,155.558Z" transform="translate(-365.579 -83.941)" fill="#fff"/>
            <path id="Path_95" data-name="Path 95" d="M391.64,144.1v4.8l73.387,41.679v-4.8Z" transform="translate(-359.676 -95.703)" fill="#fff"/>
            <path id="Path_96" data-name="Path 96" d="M400.953,154.4v4.8l36.691,21.184v-4.8Z" transform="translate(-350.115 -85.126)" fill="#fff"/>
            <path id="Path_97" data-name="Path 97" d="M391.45,158.768l-15.581-9v4.8l15.581,9Z" transform="translate(-375.868 -89.882)" fill="#fff"/>
            <path id="Path_98" data-name="Path 98" d="M414.89,157.4l51.867,29.253v-4.8L414.89,152.6Z" transform="translate(-335.806 -86.978)" fill="#fff"/>
            <path id="Path_99" data-name="Path 99" d="M430.184,170.818l20.871,12.05v-4.8l-20.871-12.05Z" transform="translate(-320.104 -73.206)" fill="#fff"/>
            <path id="Path_100" data-name="Path 100" d="M375.868,129.95l130.951,74.913v-4.8L375.868,125.146Z" transform="translate(-375.868 -115.165)" fill="#fff"/>
            <path id="Path_101" data-name="Path 101" d="M421.39,171.007l38.693,21.649v-4.8L421.39,166.2Z" transform="translate(-329.132 -73.012)" fill="#fff"/>
            <path id="Path_102" data-name="Path 102" d="M404.877,171.445,375.868,154.7v4.8l29.008,16.748Z" transform="translate(-375.868 -84.825)" fill="#fff"/>
            <path id="Path_103" data-name="Path 103" d="M433.288,192.311l14.58,8.417v-4.8l-14.58-8.417Z" transform="translate(-316.917 -51.14)" fill="#fff"/>
            <path id="Path_104" data-name="Path 104" d="M425.747,183.032l29.864,17.242v-4.8l-29.864-17.242Z" transform="translate(-324.66 -60.667)" fill="#fff"/>
            <path id="Path_105" data-name="Path 105" d="M375.868,149.65l130.951,74.914v-4.8L375.868,144.847Z" transform="translate(-375.868 -94.938)" fill="#fff"/>
          </g>
          <path id="Path_106" data-name="Path 106" d="M391.08,124.291l-43.051-24.9c-7.527-4.345-13.627.268-13.627,10.3v49.832c0,10.036,6.1,21.694,13.627,26.039l43.051,24.9c7.527,4.345,13.627-.268,13.627-10.3V150.33C404.707,140.294,398.607,128.636,391.08,124.291Z" transform="translate(-300.962 -60.298)" fill="#2672ab"/>
          <path id="Path_107" data-name="Path 107" d="M396.4,206.356l-43.051-24.9c-7.527-4.345-13.627-16-13.627-26.039v-49.83a16.345,16.345,0,0,1,1.684-7.778c-4.177.693-7,5-7,11.832v49.83c0,10.036,6.1,21.694,13.627,26.039l43.051,24.9c5.148,2.971,9.625,1.751,11.943-2.525A10.035,10.035,0,0,1,396.4,206.356Z" transform="translate(-300.962 -60.244)" fill="#084c94"/>
          <g id="Group_30" data-name="Group 30" transform="translate(0 47.277)">
            <path id="Path_108" data-name="Path 108" d="M374.58,131.166l-43.051-24.9c-7.527-4.345-13.627.268-13.627,10.3V166.4c0,10.036,6.1,21.694,13.627,26.039l43.051,24.9c7.527,4.345,13.627-.268,13.627-10.3V157.2C388.207,147.169,382.107,135.511,374.58,131.166Z" transform="translate(-317.902 -100.516)" fill="#0fbab8"/>
            <path id="Path_109" data-name="Path 109" d="M379.265,129.13l-43.051-24.9c-3.222-1.86-6.179-2.067-8.512-.92l-.075-.081-7.448,4.374.026.091c2.4-1.429,5.539-1.336,8.986.655l43.051,24.9c7.527,4.345,13.627,16,13.627,26.039v49.832c0,4.876-1.449,8.459-3.794,10.368l4.153-2.736c3.492-2,6.666-5.111,6.666-11.751V155.169C392.894,145.133,386.792,133.476,379.265,129.13Z" transform="translate(-315.564 -102.599)" fill="#0ba19f"/>
            <path id="Path_110" data-name="Path 110" d="M372.911,130.85l-43.053-24.9c-3.737-2.158-7.122-2.1-9.584-.274,2.235-.847,4.967-.543,7.928,1.167l43.051,24.9c7.527,4.347,13.627,16,13.627,26.041v49.83c0,5.052-1.548,8.725-4.043,10.577,3.447-1.307,5.7-5.381,5.7-11.469V156.889C386.538,146.853,380.436,135.2,372.911,130.85Z" transform="translate(-315.467 -100.839)" fill="#fff" opacity="0.7"/>
            <path id="Path_111" data-name="Path 111" d="M323.536,112.219v57.043l46.688,26.967V139.184Zm43.7,78.826-40.7-23.509V117.4l40.7,23.507Z" transform="translate(-312.118 -92.722)" fill="#fff"/>
            <path id="Path_112" data-name="Path 112" d="M347.487,136.091c0,3.737-2.641,5.243-5.9,3.362a12.993,12.993,0,0,1-5.9-10.172c0-3.737,2.641-5.241,5.9-3.362A13,13,0,0,1,347.487,136.091Z" transform="translate(-299.637 -79.487)" fill="#fff"/>
            <path id="Path_113" data-name="Path 113" d="M324.308,140.845l12.156-15.709,12.343,31.231,8.977-7.294L367.7,176l-.187,2.727-43.013-23Z" transform="translate(-311.325 -79.46)" fill="#fff"/>
          </g>
        </g>
        <g id="Group_34" data-name="Group 34" transform="translate(530.768 144.725)">
          <g id="Group_32" data-name="Group 32" transform="translate(0 0)">
            <path id="Path_114" data-name="Path 114" d="M631.893,157.567c0,7.752-2.675,13.24-7.022,15.9-.132.079-7.43,4.607-7.563,4.682-4.524,2.529-1.632-3.21-8.5-7.178-13.828-7.983-25.04-27.32-25.04-43.188,0-7.847-7.254-7.91-2.811-10.531.124-.073,8.293-4.736,8.421-4.805,4.511-2.444,10.678-1.994,17.478,1.931C620.683,122.362,631.893,141.7,631.893,157.567Z" transform="translate(-563.251 -107.232)" fill="#fc0"/>
            <path id="Path_115" data-name="Path 115" d="M598.234,116.487c-6.629-3.826-12.652-4.343-17.132-2.1,4.175-1.167,9.355-.3,14.969,2.945,13.828,7.985,25.04,27.322,25.04,43.191,0,8.261-3.044,13.946-7.908,16.38,6.112-1.71,10.071-7.793,10.071-17.221C623.273,143.809,612.062,124.472,598.234,116.487Z" transform="translate(-561.621 -105.06)" fill="#fff"/>
            <ellipse id="Ellipse_1" data-name="Ellipse 1" cx="20.38" cy="35.301" rx="20.38" ry="35.301" transform="matrix(0.863, -0.505, 0.505, 0.863, 0, 20.572)" fill="#ffd70f"/>
          </g>
          <path id="Path_116" data-name="Path 116" d="M590.317,127.463c0,2.229-1.575,3.127-3.518,2.006a7.753,7.753,0,0,1-3.518-6.07c0-2.229,1.575-3.127,3.518-2.006A7.756,7.756,0,0,1,590.317,127.463Z" transform="translate(-559.385 -96.993)" fill="#d99f00"/>
          <path id="Path_117" data-name="Path 117" d="M597.34,131.517c0,2.229-1.577,3.127-3.518,2.006a7.758,7.758,0,0,1-3.52-6.07c0-2.229,1.577-3.127,3.52-2.006A7.761,7.761,0,0,1,597.34,131.517Z" transform="translate(-552.176 -92.831)" fill="#d99f00"/>
          <path id="Path_118" data-name="Path 118" d="M581.966,128.675l3.283.555c1.512,5.75,5.561,11.366,10.075,13.972,4.38,2.527,8.386,1.694,9.969-2.075l3.249,3.322c-2.1,5-7.414,6.1-13.218,2.75C589.339,143.743,583.97,136.3,581.966,128.675Z" transform="translate(-560.734 -89.022)" fill="#d99f00"/>
          <path id="Path_119" data-name="Path 119" d="M587.826,128.722a7.756,7.756,0,0,1-3.518-6.07,2.941,2.941,0,0,1,.474-1.715c-.906.209-1.5,1.068-1.5,2.434a7.756,7.756,0,0,0,3.518,6.07c1.309.756,2.44.578,3.044-.292A2.814,2.814,0,0,1,587.826,128.722Z" transform="translate(-559.385 -96.965)" fill="#b08100"/>
          <path id="Path_120" data-name="Path 120" d="M594.849,132.776a7.756,7.756,0,0,1-3.518-6.07,2.958,2.958,0,0,1,.472-1.715c-.906.209-1.5,1.068-1.5,2.434a7.758,7.758,0,0,0,3.52,6.07c1.309.756,2.438.576,3.044-.292A2.824,2.824,0,0,1,594.849,132.776Z" transform="translate(-552.176 -92.803)" fill="#b08100"/>
          <g id="Group_33" data-name="Group 33" transform="translate(21.232 39.653)">
            <path id="Path_121" data-name="Path 121" d="M594.64,135.232l-.4-.413a5.992,5.992,0,0,1-1.5,2.152A5.277,5.277,0,0,0,594.64,135.232Z" transform="translate(-570.91 -122.367)" fill="#b08100"/>
            <path id="Path_122" data-name="Path 122" d="M596.352,146.479c-5.738-3.312-10.9-10.294-13.084-17.583l-1.3-.221c2.006,7.624,7.373,15.068,13.358,18.524,4.369,2.523,8.459,2.519,11.112.231C603.814,148.952,600.194,148.7,596.352,146.479Z" transform="translate(-581.966 -128.675)" fill="#b08100"/>
          </g>
        </g>
        <g id="Group_42" data-name="Group 42" transform="translate(317.005 281.254)">
          <g id="Group_35" data-name="Group 35" transform="translate(0)">
            <path id="Path_123" data-name="Path 123" d="M599.288,260.582V398.749l12.375-7.244V253.016Z" transform="translate(-329.187 -97.892)" fill="#2672ab"/>
            <path id="Path_124" data-name="Path 124" d="M736.163,335.39V473.557L466.015,318.641V180.152Z" transform="translate(-466.015 -172.7)" fill="#3f92d1"/>
            <path id="Path_125" data-name="Path 125" d="M466.015,183.927,736.163,339.165l12.329-7.565L478.264,176.475Z" transform="translate(-466.015 -176.475)" fill="#72b5e8"/>
            <path id="Path_126" data-name="Path 126" d="M466.015,180.152,736.163,335.39l12.329-7.565-12.363,5.843Z" transform="translate(-466.015 -172.7)" fill="#fff" opacity="0.7"/>
          </g>
          <ellipse id="Ellipse_2" data-name="Ellipse 2" cx="34.504" cy="59.766" rx="34.504" ry="59.766" transform="translate(151.403 164.534) rotate(-30.311)" fill="#2672ab"/>
          <path id="Path_127" data-name="Path 127" d="M595.829,345.437c-23.412-13.518-42.392-46.255-42.392-73.118,0-10.024,2.645-17.812,7.172-22.938-6.966,4.647-11.226,13.763-11.226,26.485,0,26.864,18.98,59.6,42.392,73.118,14.677,8.474,27.611,7.381,35.22-1.232C619.25,352.918,608.156,352.555,595.829,345.437Z" transform="translate(-380.422 -101.624)" fill="#084c94"/>
          <g id="Group_37" data-name="Group 37" transform="translate(15.686 72.914)">
            <path id="Path_128" data-name="Path 128" d="M550.44,222.865l-9.114-5.263V320.324l9.114,5.261Zm13.127-5.15-9.114-5.263V327.788l9.114,5.261Zm13.514,23.2-9.114-5.263V335.51l9.114,5.261ZM514.3,248.154v56.275l9.116,5.263V253.415Zm22.628-15.644-9.114-5.263v84.9l9.114,5.263Zm53.411,36.926-9.116-5.263v79.059l9.116,5.261Zm13,32.6-9.116-5.263v54.053l9.116,5.261ZM509.9,238.4l-9.114-5.261v63.143l9.114,5.263Zm-36.142,3.729v38.26l9.116,5.261V247.39Zm22.63-15.005-9.116-5.263v66.25l9.116,5.261Z" transform="translate(-473.755 -212.452)" fill="#2672ab"/>
            <path id="Path_129" data-name="Path 129" d="M550.44,254.523l-9.114-5.263v62.4l9.114,5.261Zm13.127-28.369-9.114-5.263v98.235l9.114,5.261Zm13.514,24.336-9.114-5.263v81.62l9.114,5.261ZM514.3,253.163v42.6l9.116,5.263v-42.6Zm22.628-1.67-9.114-5.263v57.258l9.114,5.263ZM509.9,234.9l-9.114-5.261v57.977l9.114,5.263Zm-36.142,25.741v11.082l9.116,5.261V265.9Zm22.63.022-9.116-5.261v24.042l9.116,5.261Zm93.953,14.823-9.116-5.263v64.345l9.116,5.261Zm13,25.9-9.116-5.263v46.036l9.116,5.261Z" transform="translate(-473.755 -203.789)" fill="#a8cff0"/>
            <g id="Group_36" data-name="Group 36" transform="translate(0.001 17.101)">
              <path id="Path_130" data-name="Path 130" d="M529.355,239.3l-9.115-5.262V232.9l9.115,5.262Z" transform="translate(-426.03 -208.562)" fill="#fff"/>
              <path id="Path_131" data-name="Path 131" d="M522.688,227.291l-9.115-5.262V220.89l9.115,5.262Z" transform="translate(-432.876 -220.89)" fill="#fff"/>
              <path id="Path_132" data-name="Path 132" d="M542.31,264.415l-9.115-5.263v-1.139l9.115,5.263Z" transform="translate(-412.73 -182.777)" fill="#fff"/>
              <path id="Path_133" data-name="Path 133" d="M516.211,241.29l-9.115-5.262v-1.139l9.115,5.263Z" transform="translate(-439.526 -206.519)" fill="#fff"/>
              <path id="Path_134" data-name="Path 134" d="M535.9,251.634l-9.115-5.262v-1.139l9.115,5.262Z" transform="translate(-419.315 -195.898)" fill="#fff"/>
              <path id="Path_135" data-name="Path 135" d="M489.538,244.32l-9.115-5.262v-1.139l9.115,5.262Z" transform="translate(-466.91 -203.407)" fill="#fff"/>
              <path id="Path_136" data-name="Path 136" d="M496.206,231.608l-9.115-5.263v-1.139l9.115,5.263Z" transform="translate(-460.064 -216.458)" fill="#fff"/>
              <path id="Path_137" data-name="Path 137" d="M482.87,245.767v1.139l-9.115-5.262V240.5Z" transform="translate(-473.755 -200.753)" fill="#fff"/>
              <path id="Path_138" data-name="Path 138" d="M509.543,239.795l-9.115-5.262v-1.139l9.115,5.263Z" transform="translate(-446.371 -208.054)" fill="#fff"/>
              <path id="Path_139" data-name="Path 139" d="M502.875,243.215l-9.115-5.262v-1.139l9.115,5.262Z" transform="translate(-453.217 -204.542)" fill="#fff"/>
            </g>
          </g>
          <g id="Group_41" data-name="Group 41" transform="translate(158.571 147.76)">
            <g id="Group_38" data-name="Group 38" transform="translate(0.377)">
              <path id="Path_140" data-name="Path 140" d="M553.88,282.376c.555-20.305,15.316-28.38,33.424-17.924,9.323,5.381,17.758,14.657,23.834,25.242l6.682-1.678c-7.61-13.806-18.471-25.98-30.516-32.934-22.788-13.157-41.35-2.756-41.628,23.157l5.344,4.854Z" transform="translate(-543.177 -249.382)" fill="#fc0"/>
              <path id="Path_141" data-name="Path 141" d="M605.355,328.213c-4.943.45-10.664-.928-16.785-4.461-17.152-9.9-31.314-32.966-33.235-53.176l-8.174-4.12c.012.148-2.732.7-2.718.851,2.363,25.157,22.772,53.484,44.127,65.814,7.756,4.477,13.005,6.832,19.227,6.169.263-.028,2.535-.675,2.795-.711Z" transform="translate(-544.443 -231.853)" fill="#fc0"/>
              <path id="Path_142" data-name="Path 142" d="M582.652,273.148c4.055,8.694,6.479,17.9,6.479,26.361,0,12.138-4.943,20.1-12.628,22.713l5.176,10.247c9.511-3.273,15.618-13.19,15.618-28.246,0-10.506-2.977-21.945-8.005-32.745Z" transform="translate(-511.528 -226.697)" fill="#fc0"/>
            </g>
            <path id="Path_143" data-name="Path 143" d="M586.52,299.8a28.51,28.51,0,0,1-5.869-7.029c-.971-1.625-.936-3.387.008-3.938a7.5,7.5,0,0,0,3-3.342c1.03.284,2.306-.093,2.306-1.506a5.572,5.572,0,0,0-1.488-3.8c-.251-6.159-2.355-12.488-9.44-16.58-2.477-1.429-4.343-1.883-5.738-1.617-.324.063-3.133.8-3.407.938-1.919.955-.152,3.018-.3,6.358-.849-.188-1.485.645-1.485,2.083,0,1.411,1.275,3.263,2.3,4.167a33.425,33.425,0,0,0,3,6.8c.944,1.642.979,3.443.008,3.948a7.737,7.737,0,0,1-5.871.249,4.41,4.41,0,0,0-2.452-.1c-.207.057-2.73.711-2.916.8-1.319.657.185,1.617.185,3.853v6.35a4.277,4.277,0,0,0,1.941,3.35l27.22,18.017c.47.271,3.143-.679,3.48-.8a1.275,1.275,0,0,0,.7-1.311v-6.35A15.124,15.124,0,0,0,586.52,299.8Z" transform="translate(-530.523 -236.514)" fill="#fc0"/>
            <g id="Group_39" data-name="Group 39" transform="translate(1.046 0.523)">
              <path id="Path_144" data-name="Path 144" d="M552.977,282.634c.555-20.305,15.315-28.38,33.424-17.924,9.323,5.381,17.758,14.657,23.834,25.242l6.682-1.678c-7.61-13.806-18.471-25.98-30.516-32.934-22.788-13.157-41.35-2.756-41.628,23.157Z" transform="translate(-544.773 -249.64)" fill="#fff"/>
              <path id="Path_145" data-name="Path 145" d="M603.075,328.471c-4.943.45-10.664-.928-16.785-4.461-17.152-9.9-31.314-32.966-33.235-53.176l-8.174-4.12c2.195,25.261,19.928,54.262,41.409,66.666,8.082,4.665,15.628,6.358,22.022,5.458Z" transform="translate(-544.662 -232.111)" fill="#fff"/>
              <path id="Path_146" data-name="Path 146" d="M581.749,273.406c4.056,8.694,6.479,17.9,6.479,26.361,0,12.138-4.943,20.1-12.628,22.713l5.176,10.247c9.511-3.273,15.617-13.19,15.617-28.246,0-10.506-2.977-21.945-8.005-32.745Z" transform="translate(-513.124 -226.955)" fill="#fff"/>
            </g>
            <path id="Path_147" data-name="Path 147" d="M585.249,300.056a28.51,28.51,0,0,1-5.869-7.029c-.971-1.625-.937-3.387.008-3.938a7.5,7.5,0,0,0,3-3.342c1.03.284,2.306-.093,2.306-1.506a5.572,5.572,0,0,0-1.488-3.8c-.251-6.159-2.355-12.488-9.44-16.58s-9.189-.191-9.44,5.679c-.849-.188-1.486.644-1.486,2.083,0,1.411,1.275,3.263,2.3,4.167a33.438,33.438,0,0,0,3,6.8c.944,1.642.979,3.443.008,3.948a7.737,7.737,0,0,1-5.871.249c-2.973-.9-5.184.9-5.184,4.56v6.35a4.277,4.277,0,0,0,1.941,3.35l29.46,17.01c1.074.618,1.944.124,1.944-1.109V310.6A15.123,15.123,0,0,0,585.249,300.056Z" transform="translate(-531.082 -236.249)" fill="#fff"/>
            <g id="Group_40" data-name="Group 40" transform="translate(0 0.784)">
              <path id="Path_148" data-name="Path 148" d="M552.461,282.763c.555-20.305,15.316-28.38,33.424-17.924,9.323,5.381,17.758,14.657,23.834,25.242L616.4,288.4c-7.61-13.806-18.471-25.98-30.516-32.933-22.788-13.157-41.35-2.756-41.628,23.157Z" transform="translate(-544.257 -249.769)" fill="#ffde17"/>
              <path id="Path_149" data-name="Path 149" d="M602.559,328.6c-4.943.45-10.664-.928-16.785-4.461-17.152-9.9-31.314-32.966-33.235-53.176l-8.174-4.12c2.195,25.261,19.928,54.262,41.409,66.666,8.082,4.665,15.628,6.358,22.022,5.458Z" transform="translate(-544.146 -232.24)" fill="#ffde17"/>
              <path id="Path_150" data-name="Path 150" d="M581.233,273.535c4.055,8.694,6.479,17.9,6.479,26.361,0,12.138-4.943,20.1-12.628,22.713l5.176,10.247c9.511-3.273,15.618-13.19,15.618-28.246,0-10.506-2.977-21.945-8.005-32.745Z" transform="translate(-512.608 -227.084)" fill="#ffde17"/>
            </g>
            <path id="Path_151" data-name="Path 151" d="M584.733,300.185a28.5,28.5,0,0,1-5.869-7.028c-.971-1.625-.936-3.387.008-3.938a7.5,7.5,0,0,0,3-3.342c1.029.284,2.306-.093,2.306-1.506a5.571,5.571,0,0,0-1.488-3.8c-.251-6.159-2.355-12.488-9.44-16.58s-9.189-.19-9.44,5.679c-.849-.188-1.486.644-1.486,2.083,0,1.411,1.275,3.263,2.3,4.167a33.428,33.428,0,0,0,3,6.8c.944,1.642.979,3.443.008,3.948a7.737,7.737,0,0,1-5.871.249c-2.973-.9-5.184.9-5.184,4.56v6.35a4.277,4.277,0,0,0,1.942,3.35l29.46,17.01c1.074.618,1.943.124,1.943-1.109v-6.35A15.124,15.124,0,0,0,584.733,300.185Z" transform="translate(-531.612 -236.117)" fill="#ffde17"/>
          </g>
        </g>
        <g id="Group_45" data-name="Group 45" transform="translate(104.446 279.756)">
          <g id="Group_43" data-name="Group 43">
            <path id="Path_152" data-name="Path 152" d="M466.755,242.484v57.857l9.7-5.332V236.83Z" transform="translate(-252.698 -113.013)" fill="#0ba19f"/>
            <path id="Path_153" data-name="Path 153" d="M575.238,302.4v57.857l-214.1-123.609V178.47Z" transform="translate(-361.135 -172.929)" fill="#0fbab8"/>
            <path id="Path_154" data-name="Path 154" d="M361.135,181.276l214.1,123.931,9.658-5.654L370.712,175.736Z" transform="translate(-361.135 -175.736)" fill="#3ecfcd"/>
            <path id="Path_155" data-name="Path 155" d="M361.135,178.47,575.238,302.4l9.658-5.654-9.458,4.134Z" transform="translate(-361.135 -172.929)" fill="#fff" opacity="0.7"/>
          </g>
          <path id="Path_156" data-name="Path 156" d="M559,333.751,366.347,221.312v-34.09L559,299.661Z" transform="translate(-355.783 -163.943)" fill="#fff"/>
          <g id="Group_44" data-name="Group 44" transform="translate(18.638 32.915)">
            <path id="Path_157" data-name="Path 157" d="M370.331,191.977l3.9,2.25,1.8,18.609.073.043,1.911-16.467,4.412,2.548,1.911,18.672.073.043,1.8-16.53,3.492,2.017-2.61,22.9-5.036-2.908L380.219,207.3l-.075-.043-1.838,13.723-5.367-3.1Z" transform="translate(-370.331 -191.977)" fill="#084c94"/>
            <path id="Path_158" data-name="Path 158" d="M381.711,198.592l3.9,2.25,1.8,18.609.073.043,1.911-16.465,4.412,2.546,1.911,18.672.073.043,1.8-16.528,3.492,2.014-2.61,22.9-5.036-2.906L391.6,213.918l-.073-.043L389.686,227.6l-5.367-3.1Z" transform="translate(-358.647 -185.186)" fill="#084c94"/>
            <path id="Path_159" data-name="Path 159" d="M393.182,205.116l3.9,2.25,1.8,18.609.073.043,1.911-16.467,4.412,2.548,1.911,18.672.073.043,1.8-16.53,3.492,2.017-2.61,22.9-5.036-2.906-1.838-15.847L403,220.4l-1.838,13.725-5.367-3.1Z" transform="translate(-346.87 -178.488)" fill="#084c94"/>
          </g>
        </g>
        <g id="Group_48" data-name="Group 48" transform="translate(165.78 58.145)">
          <g id="Group_46" data-name="Group 46" transform="translate(0 28.703)">
            <path id="Path_160" data-name="Path 160" d="M409.1,94.555V134.9l6.085-3.352V90.89Z" transform="translate(-373.226 -69.938)" fill="#fc0"/>
            <path id="Path_161" data-name="Path 161" d="M427.314,103.369v40.347L391.4,122.965V82.306Z" transform="translate(-391.398 -78.751)" fill="#ffd70f"/>
            <path id="Path_162" data-name="Path 162" d="M391.4,84.106l35.916,21.063,6.041-3.665L397.36,80.552Z" transform="translate(-391.398 -80.552)" fill="#ffde17"/>
            <path id="Path_163" data-name="Path 163" d="M391.4,82.306l35.916,21.063,6.041-3.665-6.345,1.721Z" transform="translate(-391.398 -78.751)" fill="#fff"/>
          </g>
          <g id="Group_47" data-name="Group 47" transform="translate(9.366)">
            <path id="Path_164" data-name="Path 164" d="M424.68,89.065V154.4l9.854-5.428V83.13Z" transform="translate(-366.594 -49.202)" fill="#d62d69"/>
            <path id="Path_165" data-name="Path 165" d="M396.02,72.145l58.159,34.108,9.781-5.935L405.674,66.389Z" transform="translate(-396.02 -66.389)" fill="#f76195"/>
            <path id="Path_166" data-name="Path 166" d="M396.02,69.229l58.159,34.108L463.96,97.4l-9.517,4.532Z" transform="translate(-396.02 -63.474)" fill="#fff" opacity="0.7"/>
          </g>
          <path id="Path_167" data-name="Path 167" d="M396.02,69.229v27.1l30.78,18.051v38.475l27.379,15.818V103.337Z" transform="translate(-386.653 -63.474)" fill="#eb4680"/>
        </g>
        <g id="Group_54" data-name="Group 54" transform="translate(317.443 228.247)">
          <g id="Group_49" data-name="Group 49">
            <path id="Path_168" data-name="Path 168" d="M486.019,165.976v45.107l6.8-3.748V161.879Z" transform="translate(-445.916 -138.454)" fill="#0ba19f"/>
            <path id="Path_169" data-name="Path 169" d="M506.385,175.829v45.107l-40.154-23.2V152.281Z" transform="translate(-466.231 -148.308)" fill="#0fbab8"/>
            <path id="Path_170" data-name="Path 170" d="M466.231,154.294l40.154,23.548,6.753-4.1L472.9,150.321Z" transform="translate(-466.231 -150.321)" fill="#3ecfcd"/>
            <path id="Path_171" data-name="Path 171" d="M466.231,152.281l40.154,23.548,6.753-4.1-7.093,1.924Z" transform="translate(-466.231 -148.308)" fill="#fff" opacity="0.7"/>
          </g>
          <g id="Group_50" data-name="Group 50" transform="translate(52.694 30.4)">
            <path id="Path_172" data-name="Path 172" d="M512.019,180.976v45.107l6.8-3.748V176.879Z" transform="translate(-471.916 -153.454)" fill="#0ba19f"/>
            <path id="Path_173" data-name="Path 173" d="M532.385,190.829v45.107l-40.154-23.2V167.281Z" transform="translate(-492.231 -163.308)" fill="#0fbab8"/>
            <path id="Path_174" data-name="Path 174" d="M492.231,169.294l40.154,23.548,6.753-4.1L498.9,165.321Z" transform="translate(-492.231 -165.321)" fill="#3ecfcd"/>
            <path id="Path_175" data-name="Path 175" d="M492.231,167.281l40.154,23.548,6.753-4.1-7.093,1.924Z" transform="translate(-492.231 -163.308)" fill="#fff" opacity="0.7"/>
          </g>
          <g id="Group_51" data-name="Group 51" transform="translate(105.05 60.462)">
            <path id="Path_176" data-name="Path 176" d="M537.852,195.809v45.107l6.8-3.748V191.712Z" transform="translate(-497.749 -168.288)" fill="#0ba19f"/>
            <path id="Path_177" data-name="Path 177" d="M558.218,205.663v45.107l-40.153-23.2V182.115Z" transform="translate(-518.065 -178.141)" fill="#0fbab8"/>
            <path id="Path_178" data-name="Path 178" d="M518.065,184.128l40.153,23.548,6.753-4.1L524.73,180.154Z" transform="translate(-518.065 -180.154)" fill="#3ecfcd"/>
            <path id="Path_179" data-name="Path 179" d="M518.065,182.115l40.153,23.548,6.753-4.1-7.093,1.924Z" transform="translate(-518.065 -178.141)" fill="#fff" opacity="0.7"/>
          </g>
          <g id="Group_52" data-name="Group 52" transform="translate(156.73 89.849)">
            <path id="Path_180" data-name="Path 180" d="M563.352,210.309v45.107l6.8-3.748V206.212Z" transform="translate(-523.249 -182.788)" fill="#0ba19f"/>
            <path id="Path_181" data-name="Path 181" d="M583.718,220.163v45.107l-40.153-23.2V196.615Z" transform="translate(-543.565 -192.641)" fill="#0fbab8"/>
            <path id="Path_182" data-name="Path 182" d="M543.565,198.628l40.153,23.548,6.753-4.1L550.23,194.654Z" transform="translate(-543.565 -194.654)" fill="#3ecfcd"/>
            <path id="Path_183" data-name="Path 183" d="M543.565,196.615l40.153,23.548,6.753-4.1-7.093,1.924Z" transform="translate(-543.565 -192.641)" fill="#fff" opacity="0.7"/>
          </g>
          <path id="Path_184" data-name="Path 184" d="M540.948,215.3a18.006,18.006,0,0,1-3.715-4.449c-.614-1.028-.592-2.144,0-2.491a4.753,4.753,0,0,0,1.9-2.116c.651.18,1.459-.061,1.459-.953a3.528,3.528,0,0,0-.94-2.4c-.16-3.9-1.492-7.9-5.975-10.492s-5.814-.12-5.975,3.593c-.537-.12-.94.407-.94,1.317a4.32,4.32,0,0,0,1.459,2.639,21.221,21.221,0,0,0,1.9,4.3c.6,1.038.618,2.177,0,2.5a4.895,4.895,0,0,1-3.715.158c-1.881-.57-3.279.565-3.279,2.884v4.019a2.7,2.7,0,0,0,1.228,2.12L543,226.7c.679.391,1.23.079,1.23-.7v-4.019A9.57,9.57,0,0,0,540.948,215.3Z" transform="translate(-407.816 -108.216)" fill="#fff"/>
          <path id="Path_185" data-name="Path 185" d="M547.144,227.212l6.508,3.757V219.3l-6.508-3.757Zm10.306,5.948,6.508,3.757V215.526l-6.508-3.757ZM567.753,208v31.114l6.508,3.758V211.75Z" transform="translate(-383.16 -91.108)" fill="#fff"/>
          <path id="Path_186" data-name="Path 186" d="M519.006,199.174a14.776,14.776,0,0,0-.132-1.844l3.074-.389a27.868,27.868,0,0,0-1.392-4.653l-3.5-1.06a24.516,24.516,0,0,0-2.181-3.762l.841-3.534a28.3,28.3,0,0,0-3.356-3.537l-1.885,2.44a15.716,15.716,0,0,0-1.542-1.04,11.669,11.669,0,0,0-1.54-.74l-1.887-4.617a9.344,9.344,0,0,0-3.354-.338l.839,4.5a4.825,4.825,0,0,0-2.181,1.244l-3.5-2.985a9.158,9.158,0,0,0-1.392,3.044l3.074,3.94a11.434,11.434,0,0,0-.13,1.694,14.7,14.7,0,0,0,.13,1.842l-3.074.389a27.829,27.829,0,0,0,1.392,4.655l3.5,1.06a24.651,24.651,0,0,0,2.181,3.759l-.839,3.537a27.983,27.983,0,0,0,3.354,3.535l1.887-2.438a15.417,15.417,0,0,0,1.54,1.04,12.068,12.068,0,0,0,1.542.74l1.885,4.617a9.351,9.351,0,0,0,3.356.338l-.841-4.505a4.792,4.792,0,0,0,2.181-1.242l3.5,2.985a9.151,9.151,0,0,0,1.392-3.046l-3.074-3.938A11.434,11.434,0,0,0,519.006,199.174ZM508.929,198a8.915,8.915,0,0,1-4.047-6.98c0-2.564,1.812-3.6,4.047-2.306a8.912,8.912,0,0,1,4.047,6.98C512.977,198.258,511.165,199.292,508.929,198Z" transform="translate(-435.761 -123.889)" fill="#fff"/>
          <g id="Group_53" data-name="Group 53" transform="translate(6.432 21.857)">
            <path id="Path_187" data-name="Path 187" d="M469.91,161.162l12.924,20.2,12.924-5.271.01.016a4.927,4.927,0,0,0-1.534-1.494l-22.8-13.165a1.945,1.945,0,0,0-1.534-.278Z" transform="translate(-468.899 -161.105)" fill="#fff"/>
            <path id="Path_188" data-name="Path 188" d="M496.305,176.111,483.34,183.5l-3.67-6.331-9.254,3.776-.041-.061,8.6-4.9-8.6-14.841a1.628,1.628,0,0,0-.971,1.713V178.3a5.586,5.586,0,0,0,2.533,4.37l22.8,13.165c1.4.807,2.533.16,2.533-1.445V178.942A5.326,5.326,0,0,0,496.305,176.111Zm-.041,19.758-9.254-14.46.691-.393,8.6,14.839Z" transform="translate(-469.405 -161.069)" fill="#fff"/>
          </g>
        </g>
        <g id="Group_56" data-name="Group 56" transform="translate(0 292.245)">
          <g id="Group_55" data-name="Group 55">
            <path id="Path_189" data-name="Path 189" d="M386.243,231.769v57.857l9.135-5.2V226.251Z" transform="translate(-230.911 -136.363)" fill="#2672ab"/>
            <path id="Path_190" data-name="Path 190" d="M464.978,274.567v57.857L309.6,242.744V184.565Z" transform="translate(-309.599 -179.161)" fill="#3f92d1"/>
            <path id="Path_191" data-name="Path 191" d="M309.6,187.3l155.379,90,9.089-5.518L318.608,181.9Z" transform="translate(-309.599 -181.898)" fill="#72b5e8"/>
            <path id="Path_192" data-name="Path 192" d="M309.6,184.565l155.379,90,9.089-5.518-9.458,3.8Z" transform="translate(-309.599 -179.161)" fill="#fff" opacity="0.7"/>
          </g>
          <path id="Path_193" data-name="Path 193" d="M363.508,216.035l-28.406-16.4c-1.743-1.007-3.156-.2-3.156,1.8v19.239a6.955,6.955,0,0,0,3.156,5.444l17.754,10.249,8.877,15.312V241.492l1.775,1.025c1.743,1.005,3.156.2,3.156-1.8V221.478A6.952,6.952,0,0,0,363.508,216.035Zm-20.026,3.6c-.924.529-2.422-.336-3.346-1.931s-.926-3.314,0-3.841,2.422.336,3.346,1.931S344.407,219.107,343.482,219.634Zm7.693,4.442c-.924.527-2.422-.338-3.348-1.933s-.924-3.314,0-3.841,2.424.338,3.348,1.933S352.1,223.55,351.176,224.077Zm7.693,4.442c-.924.527-2.424-.338-3.348-1.933s-.924-3.314,0-3.841,2.424.338,3.348,1.931S359.793,227.992,358.869,228.519Zm-29.29-9.213V203.688l-10.849-6.262c-1.743-1.007-3.158-.2-3.158,1.8v19.241a6.957,6.957,0,0,0,3.158,5.444l1.775,1.026V235.12l8.875-5.063,17.754,10.251c1.743,1.005,3.158.2,3.158-1.8V237.6l-15.19-8.769A12.188,12.188,0,0,1,329.579,219.306Z" transform="translate(-303.466 -166.402)" fill="#fff"/>
          <path id="Path_194" data-name="Path 194" d="M343.973,211.163v4.8L418.2,258.825v-4.8Z" transform="translate(-274.308 -151.853)" fill="#fff"/>
          <path id="Path_195" data-name="Path 195" d="M394.726,250.343l-50.753-29.33v4.8l50.753,29.33Z" transform="translate(-274.308 -141.74)" fill="#fff"/>
          <path id="Path_196" data-name="Path 196" d="M343.973,220.892,418.2,263.75v-4.8l-74.229-42.858Z" transform="translate(-274.308 -146.797)" fill="#fff"/>
        </g>
        <g id="Group_60" data-name="Group 60" transform="translate(88.934 256.566)">
          <path id="Path_197" data-name="Path 197" d="M500.112,317.646l-48.251-27.091c4.167-3.054,6.611-6.69,6.611-10.6,0-10.794-18.421-19.543-41.144-19.543s-41.146,8.749-41.146,19.543S394.6,299.5,417.329,299.5a82.972,82.972,0,0,0,13.5-1.1l51.96,29.18c3.354,1.935,9.215,1.694,13.088-.543C500.165,324.857,505.262,320.686,500.112,317.646Z" transform="translate(-330.173 -65.612)" fill="#92b4d1" opacity="0.2"/>
          <g id="Group_59" data-name="Group 59">
            <g id="Group_57" data-name="Group 57" transform="translate(104.95 159.807)">
              <path id="Path_198" data-name="Path 198" d="M447.772,288.965a11.043,11.043,0,1,1-14.961-4.485A11.046,11.046,0,0,1,447.772,288.965Z" transform="translate(-382.947 -202.065)" fill="#001a46"/>
              <path id="Path_199" data-name="Path 199" d="M432.119,251.758,408.21,264.642l35.666,65.794,0,0c.016.033.03.067.049.1,2.071,3.844,9.1,4.078,15.7.519s10.275-9.558,8.2-13.4c-.018-.032-.039-.063-.057-.093l0,0Z" transform="translate(-402.241 -234.302)" fill="#084c94"/>
              <path id="Path_200" data-name="Path 200" d="M432.424,253.322c2.071,3.845-1.6,9.846-8.2,13.4s-13.633,3.324-15.7-.521,1.6-9.846,8.2-13.4S430.353,249.478,432.424,253.322Z" transform="translate(-402.521 -235.82)" fill="#2672ab"/>
              <path id="Path_201" data-name="Path 201" d="M419.486,243.145l-14.221,7.663,10.113,18.767,0,0,.028.059c1.232,2.286,5.415,2.426,9.341.308s6.112-5.685,4.88-7.971l-.032-.057h0Z" transform="translate(-405.265 -243.145)" fill="#001a46"/>
            </g>
            <g id="Group_58" data-name="Group 58" transform="translate(15.788)">
              <path id="Path_202" data-name="Path 202" d="M424.505,173.248c-17.707-10.223-33.764-11.4-45.513-5.032-.328.178-17.19,9.586-17.721,10.4,11.955-9.019,29.656-8.883,49.408,2.523,36.008,20.788,65.2,71.136,65.2,112.454,0,21.083-7.6,35.736-19.829,42.274a14.773,14.773,0,0,0,3.182-1.4c.347-.195,11.844-7.16,12.184-7.369,11.323-6.921,18.287-21.215,18.287-41.4C489.7,244.385,460.513,194.036,424.505,173.248Z" transform="translate(-361.271 -164.293)" fill="#72b5e8"/>
            </g>
            <path id="Path_203" data-name="Path 203" d="M418.677,177.142c-36.006-20.79-65.2-4.147-65.2,37.171s29.19,91.667,65.2,112.454,65.2,4.147,65.2-37.171S454.685,197.93,418.677,177.142ZM417.7,316.9c-30.556-17.64-55.326-60.367-55.326-95.428s24.77-49.185,55.326-31.545,55.326,60.367,55.326,95.43S448.254,334.544,417.7,316.9Z" transform="translate(-353.481 -160.295)" fill="#d1ebff"/>
            <path id="Path_204" data-name="Path 204" d="M424.646,302.818c-30.556-17.64-55.326-60.367-55.326-95.428,0-14.3,4.124-25.117,11.08-31.717-13.664,3.672-22.531,17.144-22.531,38.118,0,35.061,24.77,77.788,55.326,95.428,18.09,10.446,34.151,9.752,44.246.172C448.263,311.857,436.924,309.907,424.646,302.818Z" transform="translate(-348.976 -152.611)" fill="#72b5e8"/>
            <path id="Path_205" data-name="Path 205" d="M409.791,176.363c-17.261-9.965-32.944-11.309-44.607-5.478,10.873-3.04,26.866-1.394,41.478,7.043,36.008,20.788,65.2,71.136,65.2,112.454,0,21.511-10.427,36.94-23.094,43.276,15.918-4.453,26.221-20.289,26.221-44.84C474.987,247.5,445.8,197.151,409.791,176.363Z" transform="translate(-341.466 -161.081)" fill="#fff" style="mix-blend-mode: screen;isolation: isolate"/>
          </g>
        </g>
      </g>
    </g>
  </g>
</svg>
