<?xml version="1.0" standalone="no"?>
<!DOCTYPE svg PUBLIC "-//W3C//DTD SVG 20010904//EN"
 "http://www.w3.org/TR/2001/REC-SVG-20010904/DTD/svg10.dtd">
<svg version="1.0" xmlns="http://www.w3.org/2000/svg"
 width="744.000000pt" height="744.000000pt" viewBox="0 0 744.000000 744.000000"
 preserveAspectRatio="xMidYMid meet">
<metadata>
Created by potrace 1.14, written by Peter Selinger 2001-2017
</metadata>
<g transform="translate(0.000000,744.000000) scale(0.100000,-0.100000)"
fill="#000000" stroke="none">
<path d="M4937 7430 c-111 -20 -206 -57 -337 -131 -81 -46 -198 -161 -262
-259 -62 -93 -93 -161 -118 -253 -40 -152 -43 -242 -16 -429 21 -139 130 -336
251 -453 89 -85 86 -82 160 -126 162 -96 295 -133 476 -132 192 1 370 60 527
175 56 42 172 155 172 169 0 5 9 16 19 26 42 40 132 237 147 323 3 14 9 39 13
56 11 42 11 247 -1 298 -12 50 -17 71 -22 94 -34 132 -117 273 -224 381 -64
65 -143 131 -156 131 -4 0 -25 12 -49 27 -57 36 -146 70 -237 91 -83 19 -266
26 -343 12z"/>
<path d="M2785 6940 c-77 -17 -109 -49 -109 -109 0 -110 140 -287 414 -521 46
-40 109 -91 140 -114 30 -22 66 -51 80 -63 14 -13 27 -23 31 -23 3 0 21 -13
39 -30 18 -16 39 -30 46 -30 7 0 14 -4 16 -8 2 -4 35 -30 73 -57 39 -27 72
-53 73 -57 2 -5 8 -8 13 -8 6 0 38 -20 72 -43 34 -24 67 -46 72 -48 10 -4 121
-75 199 -127 21 -15 46 -31 56 -37 11 -5 43 -24 72 -41 381 -226 823 -460
1101 -583 218 -97 270 -119 389 -165 109 -42 135 -51 150 -55 4 -1 36 -14 70
-27 35 -14 70 -27 78 -29 8 -3 47 -14 85 -26 394 -119 622 -135 700 -49 39 43
13 139 -66 247 -57 79 -268 288 -380 377 -13 10 -33 26 -44 35 -11 8 20 -24
68 -73 78 -78 197 -222 197 -239 0 -3 5 -18 12 -34 16 -39 16 -64 1 -95 -22
-46 -52 -57 -158 -61 -95 -4 -299 34 -440 83 -32 11 -68 22 -80 24 -40 8 -383
143 -514 202 -42 19 -103 47 -136 62 -185 83 -657 328 -663 344 -2 4 -9 8 -16
8 -15 0 -342 195 -512 305 -103 67 -320 217 -364 252 -8 6 -50 39 -93 73 -278
218 -452 403 -483 515 -16 54 -14 74 9 101 52 60 186 65 404 13 47 -11 87 -19
89 -17 3 4 -229 76 -265 83 -9 2 -35 8 -59 14 -24 7 -60 14 -80 17 -20 2 -45
7 -55 10 -28 9 -199 12 -232 4z"/>
<path d="M1675 6749 c-97 -9 -146 -26 -190 -64 -36 -33 -65 -99 -60 -140 24
-206 258 -485 715 -854 392 -317 898 -660 1433 -971 71 -41 143 -83 160 -94
72 -41 297 -166 301 -166 2 0 35 -17 73 -39 87 -49 590 -304 708 -358 50 -23
128 -59 175 -81 145 -67 309 -138 445 -192 72 -29 141 -57 155 -63 14 -5 34
-12 44 -14 11 -2 24 -7 30 -12 15 -12 251 -93 426 -147 146 -45 210 -63 330
-90 97 -21 111 -24 155 -30 22 -2 47 -7 55 -10 35 -14 270 -12 330 2 160 37
215 156 144 315 -16 35 -32 66 -36 67 -4 2 -8 8 -8 14 0 11 -58 94 -96 138
-150 173 -293 311 -489 470 -44 36 -82 67 -85 70 -18 18 -100 80 -106 80 -3 0
-17 -12 -30 -27 l-24 -28 48 -39 c89 -76 372 -365 372 -381 0 -4 11 -21 25
-39 35 -45 67 -122 70 -167 3 -45 -22 -73 -82 -94 -37 -14 -248 -15 -283 -2
-8 3 -31 8 -50 11 -55 7 -247 53 -335 80 -165 50 -190 58 -210 67 -11 4 -42
15 -69 24 -66 21 -234 83 -271 100 -16 7 -66 28 -110 45 -44 17 -104 43 -133
56 -29 13 -54 24 -57 24 -2 0 -41 17 -87 39 -46 21 -112 51 -148 67 -83 37
-551 270 -655 327 -44 24 -114 61 -155 84 -41 22 -104 57 -140 77 -36 21 -73
40 -82 43 -10 3 -18 9 -18 14 0 5 -4 9 -10 9 -5 0 -56 27 -112 61 -57 34 -134
80 -173 102 -38 23 -74 45 -80 50 -5 4 -55 35 -110 69 -55 34 -101 65 -103 70
-2 4 -8 8 -14 8 -30 0 -710 488 -814 585 -6 5 -40 35 -75 65 -88 76 -266 255
-315 315 -92 113 -146 222 -137 275 10 63 85 90 235 85 57 -3 112 -6 123 -8
11 -2 40 -7 65 -11 70 -11 85 -14 88 -16 1 -2 5 -3 10 -4 11 -3 86 -19 92 -20
7 -2 103 -27 118 -32 7 -2 14 -4 17 -4 3 0 23 -7 46 -15 23 -8 45 -15 49 -15
6 0 32 72 27 76 -4 3 -340 116 -356 119 -9 2 -65 17 -126 34 -60 18 -123 34
-140 37 -16 3 -57 11 -90 18 -131 30 -297 44 -400 35z"/>
<path d="M408 6215 c-2 -2 -30 -5 -63 -9 -132 -13 -208 -54 -248 -132 -18 -34
-16 -146 3 -168 5 -7 11 -21 13 -32 6 -43 111 -211 187 -299 125 -146 315
-336 471 -470 141 -123 375 -310 524 -420 44 -33 85 -63 90 -68 6 -4 42 -30
80 -57 39 -28 75 -53 80 -57 62 -48 85 -63 93 -63 6 0 12 -3 14 -7 5 -12 75
-63 86 -63 6 0 12 -4 14 -8 4 -11 127 -92 139 -92 5 0 9 -4 9 -8 0 -4 15 -16
33 -27 17 -10 34 -21 37 -25 3 -3 50 -33 105 -67 55 -34 105 -67 112 -73 7 -5
15 -10 18 -10 5 0 145 -90 155 -100 5 -5 27 -18 75 -44 11 -6 22 -13 25 -16 3
-3 95 -59 205 -124 110 -65 211 -126 225 -135 14 -8 27 -16 30 -16 3 0 16 -8
30 -17 24 -15 97 -57 370 -210 63 -36 159 -88 213 -117 53 -28 141 -74 195
-103 114 -60 604 -305 677 -338 28 -12 97 -45 155 -72 58 -28 115 -54 126 -58
l22 -9 0 -797 c0 -650 3 -798 14 -805 18 -11 967 -10 988 1 25 13 26 196 1
209 -9 5 -169 9 -356 9 -187 0 -350 1 -363 1 l-22 1 0 630 1 629 27 -10 c31
-11 277 -113 339 -140 24 -11 49 -19 56 -19 7 0 17 -4 23 -8 5 -5 43 -21 84
-36 41 -16 102 -39 135 -51 89 -35 545 -185 560 -185 8 0 17 -4 20 -10 5 -8
-33 -127 -111 -350 -9 -25 -17 -52 -19 -60 -2 -8 -24 -72 -49 -142 -24 -71
-42 -128 -39 -128 3 0 1 -6 -4 -12 -10 -12 -76 -204 -73 -210 0 -2 -6 -20 -14
-40 -9 -21 -16 -48 -16 -61 l0 -25 124 -1 c88 -1 126 3 133 12 6 6 47 127 93
267 45 140 86 260 91 266 7 9 94 12 304 12 264 0 294 -1 300 -16 9 -23 85
-243 90 -262 15 -54 88 -256 97 -267 8 -10 41 -13 128 -12 64 0 123 5 130 9
15 9 25 -23 -164 535 -64 186 -116 340 -116 340 0 1 6 2 13 3 118 10 210 52
250 114 27 40 28 48 23 112 -9 116 -101 280 -259 461 -81 92 -272 282 -372
370 -44 38 -82 72 -85 75 -3 3 -27 23 -54 45 -27 21 -60 49 -72 60 -12 11 -37
32 -55 45 -18 14 -38 31 -46 38 -7 7 -13 9 -13 4 0 -5 15 -21 33 -36 34 -28
221 -212 272 -268 150 -163 254 -347 255 -450 0 -36 -27 -108 -40 -108 -4 0
-14 19 -23 42 -19 52 -118 339 -121 353 -10 46 -19 55 -49 55 -18 1 -86 1
-151 1 -130 1 -127 2 -141 -61 -2 -8 -11 -35 -20 -60 -9 -25 -18 -52 -20 -60
-2 -8 -27 -80 -55 -159 -27 -80 -50 -146 -50 -147 0 -1 -26 5 -57 13 -57 15
-78 20 -119 28 -82 18 -434 125 -554 170 -19 7 -87 32 -150 55 -63 23 -124 45
-135 50 -11 4 -56 22 -100 39 -44 18 -88 36 -97 41 -10 6 -25 10 -33 10 -8 0
-15 4 -15 10 0 5 -3 9 -8 8 -18 -5 -81 27 -85 44 -3 12 -15 18 -34 19 -15 0
-35 2 -43 4 -18 3 -230 96 -363 159 -55 25 -101 46 -103 46 -7 0 -526 260
-614 307 -41 22 -132 70 -202 107 -70 36 -142 75 -160 86 -18 11 -40 23 -48
27 -8 4 -36 19 -61 34 -55 32 -140 79 -189 105 -19 11 -37 21 -40 24 -3 3 -48
30 -100 60 -52 29 -148 87 -213 127 -65 40 -121 73 -123 73 -3 0 -10 5 -17 10
-15 13 -136 90 -141 90 -18 0 -726 485 -841 577 -16 13 -35 27 -40 31 -76 55
-132 98 -140 106 -5 6 -28 24 -50 41 -54 40 -73 56 -101 83 -13 13 -24 20 -24
18 0 -3 -12 7 -27 22 -16 15 -55 50 -88 77 -60 50 -314 300 -370 365 -61 70
-124 158 -158 221 -76 138 -81 236 -18 299 19 19 71 52 71 45 0 -2 12 0 27 6
61 23 171 28 308 14 131 -13 112 -9 347 -60 9 -2 60 -15 113 -29 53 -14 100
-26 103 -26 10 1 -89 40 -113 44 -11 2 -37 12 -57 20 -21 9 -38 14 -38 12 0
-3 -16 2 -35 10 -19 8 -35 11 -35 8 0 -4 -6 -2 -12 3 -20 16 -365 105 -498
129 -14 2 -47 9 -75 14 -91 17 -119 21 -200 26 -44 3 -97 6 -117 8 -21 2 -39
2 -40 1z m6237 -3667 c3 -14 16 -58 29 -99 13 -41 23 -76 21 -79 -3 -5 -24 -5
-111 -1 -21 1 -21 2 10 111 30 105 42 121 51 68z m-70 -517 c55 -11 120 -23
145 -27 25 -3 52 -8 60 -9 8 -2 23 -4 32 -4 14 -1 46 -69 54 -118 2 -10 -51
-13 -236 -13 l-239 0 14 40 c8 22 11 40 8 40 -4 0 -2 5 5 12 7 7 12 18 12 25
0 23 29 85 37 80 5 -3 53 -14 108 -26z"/>
<path d="M6381 3337 c2 -1 13 -9 24 -17 19 -14 19 -14 6 3 -7 9 -18 17 -24 17
-6 0 -8 -1 -6 -3z"/>
<path d="M1099 2892 l-117 -3 -123 -152 c-68 -84 -160 -197 -204 -252 -44 -55
-90 -110 -102 -123 -13 -13 -23 -26 -23 -30 0 -4 -17 -25 -38 -47 -20 -23 -57
-68 -81 -100 -25 -33 -48 -62 -51 -65 -4 -3 -9 -13 -13 -22 -3 -10 -10 -18
-14 -18 -5 0 -8 174 -8 388 1 213 -2 395 -7 405 -8 15 -25 17 -133 17 l-125 0
0 -894 c0 -806 2 -894 16 -900 31 -12 232 -7 241 7 4 6 8 161 9 342 1 182 2
332 3 335 0 3 18 24 39 46 20 23 50 58 67 78 16 20 33 36 36 36 6 0 140 -195
148 -215 2 -5 7 -12 10 -15 6 -5 134 -193 156 -228 35 -58 131 -198 138 -200
4 -2 7 -8 7 -14 0 -6 14 -27 30 -48 17 -21 30 -42 30 -47 0 -6 9 -18 20 -28
11 -10 20 -24 20 -30 0 -20 18 -23 156 -24 102 -2 133 1 143 12 9 12 -15 54
-125 218 -75 112 -145 213 -155 225 -11 11 -19 23 -19 26 0 6 -87 138 -107
163 -9 11 -175 256 -230 339 -35 54 -36 53 23 119 16 18 56 64 89 102 33 39
64 75 70 81 5 6 28 32 50 58 22 27 48 58 59 70 10 11 37 43 60 70 44 53 113
133 155 181 60 68 89 112 83 122 -10 15 -51 18 -183 15z"/>
<path d="M2001 2892 c-256 -1 -429 -6 -436 -12 -16 -13 -15 -1764 1 -1780 7
-7 168 -9 510 -8 l499 3 3 108 c2 81 0 107 -10 108 -7 1 -177 2 -377 3 -354 1
-364 2 -370 21 -6 16 -7 521 -2 572 1 9 82 12 332 12 201 0 335 3 341 9 14 14
14 187 1 204 -9 10 -76 13 -338 12 -287 0 -327 2 -334 15 -10 21 -8 488 3 498
4 4 165 8 356 8 192 1 352 4 356 7 6 6 7 66 5 175 l-1 41 -57 4 c-32 1 -249 2
-482 0z"/>
<path d="M2916 2873 c-10 -37 -4 -1758 7 -1771 7 -9 40 -12 119 -11 96 1 110
4 116 20 8 20 7 912 -1 1197 -4 137 -2 182 6 179 7 -2 12 -8 12 -13 0 -12 148
-274 187 -331 15 -23 28 -46 28 -52 0 -6 4 -11 8 -11 4 0 13 -12 19 -27 7 -16
87 -145 178 -288 91 -143 169 -268 172 -277 3 -10 9 -18 13 -18 4 0 10 -8 14
-17 3 -10 28 -52 56 -93 27 -41 53 -82 57 -90 4 -8 30 -52 59 -96 l53 -82 119
-1 c89 -1 122 1 128 11 11 16 12 1741 2 1768 -7 18 -17 20 -122 20 -100 0
-114 -2 -118 -17 -7 -29 -2 -1108 6 -1243 4 -68 5 -122 2 -120 -2 3 -18 30
-34 60 -99 186 -202 363 -299 513 -26 39 -52 80 -58 90 -12 21 -221 349 -310
487 -34 52 -79 125 -101 162 l-39 67 -137 1 c-122 0 -137 -2 -142 -17z"/>
<path d="M3787 824 c-3 -4 -60 -6 -126 -5 -67 1 -121 -2 -122 -6 -8 -76 -9
-73 24 -74 18 0 46 -2 62 -2 l30 -2 2 -215 c1 -118 2 -284 3 -368 l0 -153 42
3 43 3 0 365 0 365 55 1 c49 1 56 4 64 26 13 36 1 60 -26 57 -13 -2 -28 0 -34
4 -6 3 -14 4 -17 1z"/>
<path d="M185 796 c-21 -21 -23 -32 -23 -114 1 -109 5 -135 27 -159 9 -10 36
-43 61 -73 25 -30 47 -57 50 -60 3 -3 21 -25 40 -50 19 -25 42 -53 50 -62 12
-13 16 -39 15 -105 l0 -88 -77 -2 c-55 -2 -78 1 -79 10 -1 7 -2 47 -2 89 -1
42 -6 80 -10 85 -5 4 -22 8 -38 9 -38 0 -41 -12 -36 -144 4 -84 8 -105 22
-116 12 -9 54 -13 124 -14 128 -2 158 3 172 30 15 28 13 231 -2 260 -7 13 -61
83 -121 156 l-109 132 -2 75 c-3 86 -6 84 93 81 l65 -1 1 -76 c0 -41 3 -80 7
-85 3 -6 22 -11 42 -12 40 -2 38 -11 36 133 -2 121 -3 121 -161 123 -115 2
-123 0 -145 -22z"/>
<path d="M1276 811 c-4 -5 -2 -20 3 -33 5 -13 14 -41 20 -63 20 -73 52 -179
83 -270 27 -82 30 -104 33 -245 2 -85 4 -165 4 -177 1 -19 7 -23 35 -23 19 0
38 6 42 12 5 7 9 80 9 163 1 158 5 186 36 277 11 31 22 65 24 75 2 10 22 78
44 151 23 74 41 135 41 137 0 1 -18 3 -40 3 -37 1 -52 -8 -56 -34 -1 -6 -10
-38 -19 -70 -9 -33 -19 -66 -21 -74 -2 -8 -11 -42 -20 -75 -9 -33 -18 -69 -20
-79 -8 -43 -21 -33 -33 27 -8 34 -18 67 -23 73 -5 7 -7 16 -6 20 2 8 -9 49
-46 169 -11 35 -16 40 -48 43 -20 2 -39 -1 -42 -7z"/>
<path d="M2449 799 c-10 -10 -19 -27 -20 -36 -7 -178 0 -216 50 -273 54 -61
70 -80 129 -153 l62 -78 0 -89 0 -90 -77 3 -78 2 -1 88 c-1 48 -4 90 -7 93
-11 12 -67 12 -74 0 -4 -6 -6 -60 -5 -121 2 -145 1 -143 163 -143 114 0 123 1
145 23 22 22 23 29 21 143 -2 87 -7 125 -18 139 -18 23 -124 150 -152 183 -70
81 -75 92 -74 168 0 82 -1 81 95 80 l62 0 1 -52 c2 -112 3 -121 22 -124 10 -2
29 -1 42 2 23 6 24 8 22 112 -3 142 -4 142 -168 142 -105 0 -123 -2 -140 -19z"/>
<path d="M4654 808 c-6 -9 -9 -672 -5 -790 1 -15 14 -17 124 -17 152 1 156 2
153 39 -1 16 -5 32 -8 36 -4 3 -46 7 -95 8 l-88 1 -1 143 c0 94 3 142 10 143
6 1 36 3 66 4 106 5 100 3 98 33 -3 45 -13 50 -89 47 -43 -1 -72 2 -77 9 -4 6
-7 71 -7 143 l-1 133 66 -1 c109 -1 117 0 122 19 3 10 1 28 -3 40 -8 21 -13
22 -133 22 -86 0 -127 -4 -132 -12z"/>
<path d="M5735 807 c-3 -6 -4 -190 -3 -407 l3 -395 38 -3 37 -3 1 43 c0 24 0
127 0 231 1 103 4 187 8 187 4 0 8 -8 9 -17 3 -35 8 -58 14 -68 4 -9 16 -49
23 -80 11 -49 50 -184 57 -197 16 -33 31 -20 43 39 2 10 12 51 23 91 12 39 18
72 15 72 -3 0 -1 6 5 12 6 7 10 15 10 18 -2 10 25 116 33 130 4 8 8 -35 8
-100 0 -63 0 -170 1 -237 l0 -123 40 0 c38 0 40 1 40 33 4 212 0 756 -4 767
-13 33 -75 21 -83 -15 -7 -35 -12 -55 -23 -95 -7 -25 -13 -52 -15 -60 -2 -8
-8 -35 -15 -60 -7 -25 -13 -52 -15 -61 -8 -42 -38 -155 -44 -167 -4 -7 -17 27
-29 75 -13 49 -25 97 -28 108 -3 11 -9 36 -14 55 -38 158 -54 212 -67 225 -18
18 -62 20 -68 2z"/>
<path d="M6984 795 c-22 -22 -23 -30 -21 -136 2 -77 7 -114 15 -117 7 -2 12
-8 12 -14 0 -5 6 -15 13 -23 6 -7 26 -30 44 -51 17 -22 41 -50 53 -64 12 -14
34 -41 49 -60 14 -19 32 -41 39 -48 6 -7 13 -16 13 -20 4 -22 5 -159 1 -170
-3 -8 -23 -11 -62 -10 -32 2 -56 0 -54 -4 3 -4 -5 -4 -18 1 -21 8 -23 14 -23
94 0 47 -4 89 -8 94 -15 15 -67 10 -72 -6 -8 -29 -3 -196 7 -223 12 -34 33
-38 171 -37 148 1 148 1 149 149 1 77 -3 124 -12 140 -7 14 -62 85 -122 158
l-108 132 -1 58 c-2 111 -9 102 79 99 l77 -2 1 -60 c3 -124 -1 -114 44 -113
38 0 40 2 41 32 1 29 1 147 -1 174 0 6 -9 21 -20 32 -17 17 -33 19 -141 19
-113 -1 -124 -3 -145 -24z"/>
</g>
</svg>
